<?xml version="1.0" encoding="UTF-8"?><svg id="_レイヤー_2" xmlns="http://www.w3.org/2000/svg" viewBox="0 0 623.57 451.2"><defs><style>.cls-1{opacity:.15;}.cls-2{opacity:.35;}.cls-3{stroke-width:0px;}</style></defs><g id="_レイヤー_1-2"><g class="cls-1"><path class="cls-3" d="m86.6,69c9.2,2.13,15.53,6.53,19,13.2,2.67,5.33,4,13.2,4,23.6,0,16.4-3.8,27.07-11.4,32-5.87,3.87-17.27,5.8-34.2,5.8H5.2V21.4c0-4-.33-7.13-1-9.4-.4-1.2-1.8-4-4.2-8.4h73.4c6,0,11.13.57,15.4,1.7,4.27,1.13,7.73,3,10.4,5.6,2.67,2.6,4.6,6,5.8,10.2,1.2,4.2,1.8,9.3,1.8,15.3,0,18.27-6.73,29.13-20.2,32.6ZM47,28.6v26.2h2.6c5.2,0,8.87-.67,11-2,2.8-1.73,4.2-5.13,4.2-10.2,0-5.6-1-9.43-3-11.5-2-2.07-5.67-2.97-11-2.7l-3.8.2Zm0,51v40.2c8.27,0,13.67-1.07,16.2-3.2,2.8-2.13,4.2-7.07,4.2-14.8s-.87-13.27-2.6-16.2c-2.4-4-7.2-6-14.4-6h-3.4Z"/><path class="cls-3" d="m222.06,125.6c-8.67,14.4-24.4,21.6-47.2,21.6-24,0-40.4-6.07-49.2-18.2-7.47-10.53-11.2-28.27-11.2-53.2s3.07-42.67,9.2-53.6C131.79,7.4,147.19,0,169.86,0c24.4,0,41.13,6,50.2,18,7.87,10.53,11.8,28.33,11.8,53.4s-3.27,43.27-9.8,54.2Zm-33.2-36.4v-10.2c0-.67-.07-1.4-.2-2.2v-2.2c0-13.87-.4-23.53-1.2-29-2-13.87-6.47-20.8-13.4-20.8-8.27,0-13.4,6.07-15.4,18.2-.27,1.87-.5,5.17-.7,9.9-.2,4.73-.3,10.9-.3,18.5,0,15.07.4,25.2,1.2,30.4,2.27,14.27,7.07,21.4,14.4,21.4,10.4,0,15.6-11.33,15.6-34Z"/><path class="cls-3" d="m327.56,27.8c-3.6-1.73-9.67-2.6-18.2-2.6-12.4,0-20.47,4.47-24.2,13.4-2.4,5.47-3.6,19-3.6,40.6,0,16.53,1.07,27,3.2,31.4,3.6,8,12.47,12,26.6,12,6.13,0,11.2-.87,15.2-2.6,3.6-1.6,7.87-4.47,12.8-8.6v32.4c-10.54,2.27-22.67,3.4-36.4,3.4-7.73,0-14.67-.2-20.8-.6-18.53-1.2-31.13-8.33-37.8-21.4-4.8-9.6-7.2-24.87-7.2-45.8,0-25.2,3.2-43.73,9.6-55.6C255.29,8.07,271.02.2,293.96.2c5.2,0,11.63.13,19.3.4,7.67.27,16.7.67,27.1,1.2v38.2c-4.4-6.27-8.67-10.33-12.8-12.2Z"/><path class="cls-3" d="m435.16,27.8c-3.6-1.73-9.67-2.6-18.2-2.6-12.4,0-20.47,4.47-24.2,13.4-2.4,5.47-3.6,19-3.6,40.6,0,16.53,1.07,27,3.2,31.4,3.6,8,12.47,12,26.6,12,6.13,0,11.2-.87,15.2-2.6,3.6-1.6,7.87-4.47,12.8-8.6v32.4c-10.54,2.27-22.67,3.4-36.4,3.4-7.73,0-14.67-.2-20.8-.6-18.53-1.2-31.13-8.33-37.8-21.4-4.8-9.6-7.2-24.87-7.2-45.8,0-25.2,3.2-43.73,9.6-55.6C362.89,8.07,378.62.2,401.56.2c5.2,0,11.63.13,19.3.4,7.67.27,16.7.67,27.1,1.2v38.2c-4.4-6.27-8.67-10.33-12.8-12.2Z"/><path class="cls-3" d="m525.07,29.2c0-3.33-.03-6.1-.1-8.3-.07-2.2-.17-3.83-.3-4.9-.4-3.2-2-7.33-4.8-12.4h47v140h-42v-64.4h-23.8v64.4h-41.8V19.8c0-4.53-1.73-9.93-5.2-16.2h47v49.4h23.8l.2-23.8Z"/><path class="cls-3" d="m623.57,143.6h-41.8V19.8c0-4.13-1.73-9.53-5.2-16.2h47v140Z"/><path class="cls-3" d="m92.6,183.2c-2.67-1.2-7-1.8-13-1.8h-8.4v98.6c0,4.67,1.67,9.87,5,15.6H29.2v-114.2h-8.6c-4.67,0-8.47.8-11.4,2.4-1.87,1.07-4.93,3.53-9.2,7.4v-35.4h102.6v35.4c-5.47-4.8-8.8-7.47-10-8Z"/><path class="cls-3" d="m179.1,181.2c0-3.33-.03-6.1-.1-8.3-.07-2.2-.17-3.83-.3-4.9-.4-3.2-2-7.33-4.8-12.4h47v140h-42v-64.4h-23.8v64.4h-41.8v-123.8c0-4.53-1.73-9.93-5.2-16.2h47v49.4h23.8l.2-23.8Z"/><path class="cls-3" d="m329.6,190.8c-5.73-5.73-10.27-9.13-13.6-10.2-2.4-.8-8.13-1.2-17.2-1.2h-13.2c-1.07,0-2.27.07-3.6.2h-4.4v26.4h44.6v26h-44.6v39h32c4.93,0,8.73-.93,11.4-2.8.53-.27,1.53-1.07,3-2.4,1.47-1.33,3.47-3.27,6-5.8v35.6h-94.2v-122.2c0-6-1.73-11.93-5.2-17.8h99v35.2Z"/><path class="cls-3" d="m91,386.4l26.4,61.2h-53c.8-4.53,1.2-7.87,1.2-10,0-2.93-2.67-10-8-21.2-1.07-2.53-2.5-5.63-4.3-9.3-1.8-3.67-3.9-7.97-6.3-12.9v53.4H5.2v-123.6c0-5.07-1.73-10.53-5.2-16.4h67.8c14.93,0,25.4,3.33,31.4,10,6,6.67,9,17.53,9,32.6,0,18.53-5.73,30.6-17.2,36.2Zm-44-55v36c3.47,0,6.33-.23,8.6-.7,2.27-.47,4.03-1.33,5.3-2.6s2.17-3.03,2.7-5.3c.53-2.27.8-5.13.8-8.6,0-6.8-.53-11.4-1.6-13.8-1.73-3.33-5.73-5-12-5h-3.8Z"/><path class="cls-3" d="m223.72,429.6c-8.67,14.4-24.4,21.6-47.2,21.6-24,0-40.4-6.07-49.2-18.2-7.47-10.53-11.2-28.27-11.2-53.2s3.07-42.67,9.2-53.6c8.13-14.8,23.53-22.2,46.2-22.2,24.4,0,41.13,6,50.2,18,7.87,10.53,11.8,28.33,11.8,53.4s-3.27,43.27-9.8,54.2Zm-33.2-36.4v-10.2c0-.67-.07-1.4-.2-2.2v-2.2c0-13.87-.4-23.53-1.2-29-2-13.87-6.47-20.8-13.4-20.8-8.27,0-13.4,6.07-15.4,18.2-.27,1.87-.5,5.17-.7,9.9-.2,4.73-.3,10.9-.3,18.5,0,15.07.4,25.2,1.2,30.4,2.27,14.27,7.07,21.4,14.4,21.4,10.4,0,15.6-11.33,15.6-34Z"/><path class="cls-3" d="m329.22,331.8c-3.6-1.73-9.67-2.6-18.2-2.6-12.4,0-20.47,4.47-24.2,13.4-2.4,5.47-3.6,19-3.6,40.6,0,16.53,1.07,27,3.2,31.4,3.6,8,12.47,12,26.6,12,6.13,0,11.2-.87,15.2-2.6,3.6-1.6,7.87-4.47,12.8-8.6v32.4c-10.54,2.27-22.67,3.4-36.4,3.4-7.73,0-14.67-.2-20.8-.6-18.53-1.2-31.13-8.33-37.8-21.4-4.8-9.6-7.2-24.87-7.2-45.8,0-25.2,3.2-43.73,9.6-55.6,8.53-15.73,24.27-23.6,47.2-23.6,5.2,0,11.63.13,19.3.4,7.67.27,16.7.67,27.1,1.2v38.2c-4.4-6.27-8.67-10.33-12.8-12.2Z"/><path class="cls-3" d="m448.33,365.4c6.53,3.07,10.33,8.87,11.4,17.4.13,1.07.23,3.77.3,8.1.07,4.33.1,10.37.1,18.1v24.2c0,1.87-.07,4-.2,6.4v8h-41.8l.2-28.4c0-.8.03-1.77.1-2.9.07-1.13.1-2.37.1-3.7s.03-2.6.1-3.8c.07-1.2.1-2.2.1-3,0-6.67-1.13-11.67-3.4-15-2.53-3.73-7.13-5.6-13.8-5.6h-6.4v62.4h-41.8v-122.6c0-5.33-1.73-11.13-5.2-17.4h47v44.6c1.73-1.73,3.8-3.93,6.2-6.6,2.4-2.67,5.2-5.87,8.4-9.6,6.4-7.33,9.6-13.27,9.6-17.8,0-1.47-.93-5-2.8-10.6h49.4l-39.4,54.6c10.13,0,17.4,1.07,21.8,3.2Z"/><path class="cls-3" d="m516.43,414.8h-29.2l-7-84.6c-.67-8.53-3.67-16.07-9-22.6h55.6l-10.4,107.2Zm4,32.8h-41.2c0-4.4-.53-7.8-1.6-10.2-.27-.53-.93-1.46-2-2.8-1.07-1.33-2.53-3.13-4.4-5.4h49.2v18.4Z"/></g><g class="cls-2"><path class="cls-3" d="m40.64,14.9c-.89-.4-2.35-.6-4.36-.6h-2.81v33.03c0,1.56.56,3.31,1.67,5.23h-15.75V14.29h-2.88c-1.56,0-2.84.27-3.82.8-.63.36-1.65,1.18-3.08,2.48V5.72h34.37v11.86c-1.83-1.61-2.95-2.5-3.35-2.68Z"/><path class="cls-3" d="m71.26,14.23c0-1.12-.01-2.04-.03-2.78-.02-.74-.06-1.28-.1-1.64-.13-1.07-.67-2.46-1.61-4.15h15.75v46.9h-14.07v-21.57h-7.97v21.57h-14V11.08c0-1.52-.58-3.33-1.74-5.43h15.75v16.55h7.97l.07-7.97Z"/><path class="cls-3" d="m123.92,17.44c-1.92-1.92-3.44-3.06-4.56-3.42-.8-.27-2.73-.4-5.76-.4h-4.42c-.36,0-.76.02-1.21.07h-1.47v8.84h14.94v8.71h-14.94v13.06h10.72c1.65,0,2.93-.31,3.82-.94.18-.09.51-.36,1-.8.49-.45,1.16-1.09,2.01-1.94v11.93h-31.56V11.61c0-2.01-.58-4-1.74-5.96h33.17v11.79Z"/><path class="cls-3" d="m169.48,52.55h-14.41l-2.55-9.18h-13.07c-.09.45-.36,1.36-.8,2.75-.4,1.16-.6,2.08-.6,2.75,0,1.07.4,2.3,1.21,3.68h-11.66l11.86-38.73c.67-2.19,1-3.75,1-4.69,0-.71-.31-1.88-.94-3.48h17.08l12.86,46.9Zm-23.18-31.76l-4.35,14.27h8.31l-3.95-14.27Z"/><path class="cls-3" d="m199.83,14.9c-.89-.4-2.35-.6-4.36-.6h-2.81v33.03c0,1.56.56,3.31,1.67,5.23h-15.75V14.29h-2.88c-1.56,0-2.84.27-3.82.8-.63.36-1.65,1.18-3.08,2.48V5.72h34.37v11.86c-1.83-1.61-2.95-2.5-3.35-2.68Z"/><path class="cls-3" d="m239.83,17.44c-1.92-1.92-3.44-3.06-4.56-3.42-.8-.27-2.73-.4-5.76-.4h-4.42c-.36,0-.76.02-1.21.07h-1.47v8.84h14.94v8.71h-14.94v13.06h10.72c1.65,0,2.93-.31,3.82-.94.18-.09.51-.36,1-.8.49-.45,1.16-1.09,2.01-1.94v11.93h-31.56V11.61c0-2.01-.58-4-1.74-5.96h33.17v11.79Z"/><path class="cls-3" d="m274.93,32.05l8.84,20.5h-17.75c.27-1.52.4-2.63.4-3.35,0-.98-.89-3.35-2.68-7.1-.36-.85-.84-1.89-1.44-3.12-.6-1.23-1.31-2.67-2.11-4.32v17.89h-14V11.15c0-1.7-.58-3.53-1.74-5.49h22.71c5,0,8.51,1.12,10.52,3.35,2.01,2.23,3.01,5.87,3.01,10.92,0,6.21-1.92,10.25-5.76,12.13Zm-14.74-18.42v12.06c1.16,0,2.12-.08,2.88-.23.76-.16,1.35-.45,1.78-.87.42-.42.73-1.01.91-1.78.18-.76.27-1.72.27-2.88,0-2.28-.18-3.82-.54-4.62-.58-1.12-1.92-1.67-4.02-1.67h-1.27Z"/><path class="cls-3" d="m39.77,69.76c-1.21-.58-3.24-.87-6.1-.87-4.15,0-6.86,1.5-8.11,4.49-.8,1.83-1.21,6.37-1.21,13.6,0,5.54.36,9.05,1.07,10.52,1.21,2.68,4.18,4.02,8.91,4.02,2.05,0,3.75-.29,5.09-.87,1.21-.54,2.63-1.5,4.29-2.88v10.85c-3.53.76-7.59,1.14-12.19,1.14-2.59,0-4.91-.07-6.97-.2-6.21-.4-10.43-2.79-12.66-7.17-1.61-3.22-2.41-8.33-2.41-15.34,0-8.44,1.07-14.65,3.22-18.63,2.86-5.27,8.13-7.91,15.81-7.91,1.74,0,3.9.04,6.46.13s5.59.22,9.08.4v12.8c-1.47-2.1-2.9-3.46-4.29-4.09Z"/><path class="cls-3" d="m83.85,102.52c-2.9,4.82-8.17,7.24-15.81,7.24-8.04,0-13.53-2.03-16.48-6.1-2.5-3.53-3.75-9.47-3.75-17.82s1.03-14.29,3.08-17.96c2.72-4.96,7.88-7.44,15.48-7.44,8.17,0,13.78,2.01,16.82,6.03,2.64,3.53,3.95,9.49,3.95,17.89s-1.09,14.5-3.28,18.16Zm-11.12-12.19v-3.42c0-.22-.02-.47-.07-.74v-.74c0-4.64-.13-7.88-.4-9.71-.67-4.64-2.17-6.97-4.49-6.97-2.77,0-4.49,2.03-5.16,6.1-.09.63-.17,1.73-.23,3.32-.07,1.59-.1,3.65-.1,6.2,0,5.05.13,8.44.4,10.18.76,4.78,2.37,7.17,4.82,7.17,3.48,0,5.23-3.8,5.23-11.39Z"/><path class="cls-3" d="m116.75,80.41l4.62-18.76h14.47l8.78,46.9h-16.01c.67-1.61,1.01-2.81,1.01-3.62,0-.22-.07-.71-.2-1.47-.13-.76-.31-1.81-.54-3.15l-2.95-16.15-5.76,24.39h-12.06l-5.09-24.99-3.15,16.55c-.22,1.16-.39,2.12-.5,2.88-.11.76-.17,1.3-.17,1.61,0,1.03.47,2.35,1.41,3.95h-11.59l7.24-38.86c.31-1.56.47-2.64.47-3.22,0-.8-.45-2.41-1.34-4.82h17.42l3.95,18.76Z"/><path class="cls-3" d="m178.12,90.53c-2.37,1.52-7.44,2.28-15.21,2.28l-.07,7.17c-.04,2.32,0,3.82.13,4.49.09.54.28,1.14.57,1.81.29.67.66,1.43,1.11,2.28h-15.75v-41.41c0-1.7-.58-3.53-1.74-5.49h23.85c4.69,0,7.97,1.36,9.85,4.09,1.61,2.28,2.41,5.85,2.41,10.72,0,7.24-1.72,11.93-5.16,14.07Zm-15.21-20.9v14.87c2.05,0,3.53-.58,4.42-1.74.67-.98,1-2.57,1-4.76,0-2.81-.13-4.67-.4-5.56-.54-1.88-1.88-2.81-4.02-2.81h-1Z"/><path class="cls-3" d="m202.71,108.55h-14v-41.47c0-1.38-.58-3.19-1.74-5.43h15.75v46.9Z"/><path class="cls-3" d="m237.82,108.55h-27.94v-40.6c0-2.14-.58-4.24-1.74-6.3h15.75v38.66h7.1c1.65,0,2.92-.31,3.82-.94.18-.09.51-.36,1-.8.49-.45,1.16-1.09,2.01-1.94v11.93Z"/><path class="cls-3" d="m282.91,108.55h-14.41l-2.55-9.18h-13.07c-.09.45-.36,1.36-.8,2.75-.4,1.16-.6,2.08-.6,2.75,0,1.07.4,2.3,1.21,3.68h-11.66l11.86-38.73c.67-2.19,1-3.75,1-4.69,0-.71-.31-1.88-.94-3.48h17.08l12.86,46.9Zm-23.18-31.76l-4.35,14.27h8.31l-3.95-14.27Z"/><path class="cls-3" d="m313.26,70.9c-.89-.4-2.35-.6-4.36-.6h-2.81v33.03c0,1.56.56,3.31,1.67,5.23h-15.75v-38.26h-2.88c-1.56,0-2.84.27-3.82.8-.63.36-1.65,1.18-3.08,2.48v-11.86h34.37v11.86c-1.83-1.61-2.95-2.5-3.35-2.68Z"/><path class="cls-3" d="m335.84,108.55h-14v-41.47c0-1.38-.58-3.19-1.74-5.43h15.75v46.9Z"/><path class="cls-3" d="m377.11,102.52c-2.9,4.82-8.17,7.24-15.81,7.24-8.04,0-13.53-2.03-16.48-6.1-2.5-3.53-3.75-9.47-3.75-17.82s1.03-14.29,3.08-17.96c2.72-4.96,7.88-7.44,15.48-7.44,8.17,0,13.78,2.01,16.82,6.03,2.64,3.53,3.95,9.49,3.95,17.89s-1.09,14.5-3.28,18.16Zm-11.12-12.19v-3.42c0-.22-.02-.47-.07-.74v-.74c0-4.64-.13-7.88-.4-9.71-.67-4.64-2.17-6.97-4.49-6.97-2.77,0-4.49,2.03-5.16,6.1-.09.63-.17,1.73-.23,3.32-.07,1.59-.1,3.65-.1,6.2,0,5.05.13,8.44.4,10.18.76,4.78,2.37,7.17,4.82,7.17,3.48,0,5.23-3.8,5.23-11.39Z"/><path class="cls-3" d="m409.13,61.65h9.04v46.9h-11.26l-12.19-23.92v6.3l-.07,6.37v4.02c0,.98.02,1.59.07,1.81.22,2.1.78,3.91,1.67,5.43h-10.72v-41.07c0-1.83-.58-3.77-1.74-5.83h14.74l10.45,20.5v-20.5Z"/></g></g></svg>