<?xml version="1.0" encoding="UTF-8"?><svg id="_レイヤー_2" xmlns="http://www.w3.org/2000/svg" viewBox="0 0 27 27"><g id="_文字要素_xFF08_スクロール_xFF09_"><path d="M23.78571,0H3.21429C1.44193,0,0,1.44193,0,3.21429v20.57143c0,1.77236,1.44193,3.21429,3.21429,3.21429h20.57143c1.77236,0,3.21429-1.44193,3.21429-3.21429V3.21429c0-1.77236-1.44193-3.21429-3.21429-3.21429ZM21.21814,11.77907c-.14593.0135-.29379.0225-.44357.0225-1.68621,0-3.168-.86721-4.03007-2.178v7.41664c0,3.02721-2.45443,5.48164-5.48164,5.48164s-5.48164-2.45443-5.48164-5.48164,2.45443-5.48164,5.48164-5.48164c.11443,0,.22629.01029.33879.01736v2.70129c-.1125-.0135-.22307-.03407-.33879-.03407-1.54543,0-2.79772,1.25229-2.79772,2.79771s1.25229,2.79772,2.79772,2.79772,2.91021-1.21757,2.91021-2.763c0-.06107.027-12.59614.027-12.59614h2.58171c.243,2.3085,2.10664,4.13036,4.43636,4.2975v3.00214Z"/></g></svg>