<?xml version="1.0" encoding="UTF-8"?><svg id="_レイヤー_2" xmlns="http://www.w3.org/2000/svg" viewBox="0 0 28 28"><g id="_文字要素_xFF08_スクロール_xFF09_"><path d="M8.20185.09695c-1.48962.07031-2.50704.30891-3.39611.65728-.92035.3588-1.70053.83963-2.47664,1.61892-.77702.77975-1.25421,1.56131-1.61028,2.48259-.34474.89134-.57835,1.90924-.64413,3.39978C.00938,9.7488-.0056,10.22508.00168,14.02676c.00725,3.80123.02403,4.27841.09524,5.77213.07121,1.4892.30892,2.50619.65728,3.39571.35925.92036.83959,1.70011,1.61933,2.47669.77929.77658,1.5613,1.25332,2.48301,1.60986.89042.34429,1.90876.5788,3.39885.64411,1.49325.06578,1.96997.08029,5.7707.07304,3.80253-.00725,4.27928-.02405,5.77253-.09481,1.48962-.07121,2.50613-.30981,3.39611-.65726.92035-.36017,1.70053-.83963,2.47664-1.61938.77611-.7793,1.2533-1.56132,1.60939-2.48304.34474-.89044.57924-1.90878.64411-3.39797.06531-1.49418.08076-1.97138.07348-5.77261-.00725-3.80168-.02447-4.27797-.09524-5.77078-.07076-1.49056-.30936-2.50709-.65728-3.39707-.35969-.92036-.83959-1.69967-1.61889-2.47669-.77929-.77612-1.5613-1.25423-2.48301-1.6094-.89087-.34475-1.90876-.57972-3.39885-.64413C18.25183.00895,17.77511-.00556,13.97302.00169c-3.80118.00725-4.27789.02359-5.77117.09525M8.36517,25.40549c-1.3649-.05943-2.10607-.28623-2.60004-.47628-.6541-.25312-1.12085-.55658-1.6121-1.0442-.49034-.48945-.79471-.95485-1.05009-1.60759-.19189-.49399-.42276-1.23427-.48671-2.59917-.06941-1.47558-.08527-1.9183-.09208-5.65648-.00725-3.73726.00634-4.17998.07076-5.65692.0585-1.364.28668-2.1061.47628-2.59963.2531-.65501.55565-1.12087,1.04419-1.61211.48943-.49126.95482-.79473,1.60801-1.0501.49352-.19279,1.23381-.42186,2.59824-.48672,1.47647-.06987,1.91872-.08483,5.65595-.09208,3.73811-.00727,4.18083.0059,5.65777.07077,1.36396.05941,2.10604.28532,2.59912.47628.65454.25311,1.12129.55476,1.6121,1.0442.49078.48945.79516.95393,1.05053,1.60849.19277.49216.42185,1.23335.48627,2.59736.07029,1.47649.08619,1.9192.09297,5.65648.00725,3.73817-.00634,4.18088-.07121,5.65692-.05941,1.3649-.28577,2.10656-.47628,2.60099-.2531.65365-.55568,1.12041-1.04466,1.61167-.48896.48945-.95435.79471-1.60801,1.0501-.49261.19232-1.23378.42185-2.59732.48672-1.47645.06939-1.91872.08527-5.6573.09208-3.73722.00725-4.17947-.00681-5.65639-.07077M19.77822,6.51639c.0018.92718.75568,1.67789,1.68284,1.67608.92761-.00181,1.67833-.75526,1.67697-1.68243-.00183-.92718-.75571-1.67834-1.68331-1.67652-.92761.00181-1.67833.7557-1.6765,1.68288M6.81159,14.0136c.0077,3.97043,3.23235,7.18196,7.2018,7.17425,3.96992-.00771,7.18322-3.23149,7.17552-7.20191-.00772-3.96906-3.23282-7.18242-7.20318-7.17471-3.96948.00771-7.18186,3.23286-7.17414,7.20236M9.33314,14.00862c-.00454-2.57694,2.08113-4.67033,4.65758-4.67487,2.57692-.00498,4.67073,2.07978,4.67571,4.65718.00501,2.5774-2.08066,4.67033-4.65802,4.67533-2.57645.00498-4.67028-2.08024-4.67527-4.65764"/></g></svg>