<?xml version="1.0" encoding="UTF-8"?><svg id="_レイヤー_2" xmlns="http://www.w3.org/2000/svg" viewBox="0 0 51.2 48.78"><defs><style>.cls-1{stroke-width:0px;}</style></defs><g id="_レイヤー_1-2"><path class="cls-1" d="m51.2,20.77C51.2,9.32,39.72,0,25.6,0S0,9.32,0,20.77c0,10.27,9.11,18.87,21.41,20.5.83.18,1.97.55,2.26,1.26.26.65.17,1.66.08,2.31,0,0-.3,1.81-.37,2.19-.11.65-.51,2.53,2.22,1.38,2.73-1.15,14.74-8.68,20.11-14.86h0c3.71-4.07,5.49-8.2,5.49-12.78Zm-34.63,6.12c0,.28-.22.5-.5.5h-7.17c-.13,0-.25-.05-.34-.14,0,0,0,0,0,0,0,0,0,0,0,0-.09-.09-.14-.21-.14-.34h0v-11.15c0-.28.22-.5.5-.5h1.8c.28,0,.5.22.5.5v8.86h4.88c.28,0,.5.22.5.5v1.8Zm4.33,0c0,.27-.22.5-.5.5h-1.8c-.28,0-.5-.22-.5-.5v-11.15c0-.27.22-.5.5-.5h1.8c.28,0,.5.22.5.5v11.15Zm12.36,0c0,.27-.22.5-.5.5h-1.8s-.09,0-.13-.02c0,0,0,0,0,0-.01,0-.02,0-.03-.01,0,0,0,0-.01,0,0,0-.02,0-.02-.01,0,0-.02,0-.02-.01,0,0,0,0-.01,0-.01,0-.02-.01-.03-.02,0,0,0,0,0,0-.05-.03-.09-.07-.13-.12l-5.12-6.91v6.62c0,.27-.22.5-.5.5h-1.8c-.28,0-.5-.22-.5-.5v-11.15c0-.27.22-.5.5-.5h1.8s.01,0,.02,0c0,0,.02,0,.03,0,0,0,.02,0,.03,0,0,0,.01,0,.02,0,0,0,.02,0,.03,0,0,0,.01,0,.02,0,.01,0,.02,0,.03,0,0,0,.01,0,.02,0,.01,0,.02,0,.03.01,0,0,.01,0,.02,0,0,0,.02,0,.03.01,0,0,.01,0,.01,0,0,0,.02.01.03.02,0,0,0,0,.01.01,0,0,.02.01.03.02,0,0,0,0,0,0,.01,0,.02.02.03.03h0s.03.04.04.05l5.11,6.9v-6.63c0-.27.22-.5.5-.5h1.8c.28,0,.5.22.5.5v11.15Zm9.92-9.36c0,.28-.22.5-.5.5h-4.88v1.89h4.88c.28,0,.5.22.5.5v1.8c0,.28-.22.5-.5.5h-4.88v1.89h4.88c.28,0,.5.22.5.5v1.8c0,.28-.22.5-.5.5h-7.17c-.13,0-.25-.05-.34-.14,0,0,0,0,0,0,0,0,0,0,0,0-.09-.09-.14-.21-.14-.34h0v-11.15h0c0-.13.05-.26.14-.34,0,0,0,0,0,0,0,0,0,0,0,0,.09-.09.21-.14.35-.14h7.17c.28,0,.5.22.5.5v1.8Z"/></g></svg>