<?xml version="1.0" encoding="UTF-8"?><svg id="_レイヤー_2" xmlns="http://www.w3.org/2000/svg" xmlns:xlink="http://www.w3.org/1999/xlink" viewBox="0 0 784 270"><defs><style>.cls-1{clip-path:url(#clippath);}.cls-2{fill:none;}.cls-2,.cls-3{stroke-width:0px;}.cls-3{fill:#c45aff;}</style><clipPath id="clippath"><rect class="cls-2" width="784" height="270"/></clipPath></defs><g id="bg_風景_"><g class="cls-1"><path class="cls-3" d="M81.31201,167.45752c-2.32227-1.04419-6.08984-1.56616-11.31055-1.56616h-7.30762v85.78198c0,4.06201,1.44922,8.58594,4.35059,13.57202H26.15381v-99.354h-7.48145c-4.0625,0-7.36816.69604-9.91797,2.08813-1.62598.92969-4.29297,3.07471-8.00488,6.43799v-30.7981h89.2627v30.7981c-4.75781-4.17627-7.65625-6.49512-8.7002-6.95996Z"/><path class="cls-3" d="M156.56494,165.71729c0-2.89795-.03027-5.30688-.08691-7.22095-.05957-1.91382-.14648-3.33325-.26074-4.26294-.34863-2.78418-1.74023-6.37817-4.17676-10.78809h40.89062v121.80005h-36.54004v-56.02808h-20.70605v56.02808h-36.36621v-107.70605c0-3.94214-1.50879-8.64014-4.52441-14.09399h40.89062v42.97803h20.70605l.17383-20.70605Z"/><path class="cls-3" d="M287.49854,174.06934c-4.98926-4.98633-8.93457-7.94434-11.83203-8.87402-2.08887-.6958-7.07715-1.04395-14.96484-1.04395h-11.4834c-.92969,0-1.97363.05981-3.13184.17383h-3.82812v22.96826h38.80176v22.61987h-38.80176v33.92993h27.83984c4.29004,0,7.5957-.81006,9.91797-2.43604.46191-.23096,1.33203-.927,2.61035-2.08789,1.27441-1.1582,3.01465-2.84106,5.21973-5.0459v30.97192h-81.9541v-106.31396c0-5.21997-1.50879-10.38013-4.52441-15.48608h86.13086v30.62402Z"/><path class="cls-3" d="M404.07666,212.00146l22.96777,53.2439h-46.11035c.69629-3.94214,1.04395-6.84302,1.04395-8.69995,0-2.55029-2.32129-8.7002-6.95996-18.44409-.92969-2.20215-2.1748-4.89917-3.74121-8.09106-1.56543-3.18896-3.39258-6.92993-5.48047-11.2229v46.45801h-36.36621v-107.53198c0-4.40723-1.50879-9.16211-4.52441-14.26807h58.98633c12.99023,0,22.09766,2.90088,27.31836,8.7002,5.21973,5.80176,7.83008,15.25488,7.83008,28.36182,0,16.125-4.98926,26.62207-14.96387,31.49414ZM365.79639,164.15137v31.31982c3.01465,0,5.50781-.20117,7.48145-.60889,1.97168-.40503,3.50781-1.1582,4.61133-2.26196,1.10156-1.10107,1.88379-2.63721,2.34863-4.61108.46289-1.97095.69629-4.46411.69629-7.48193,0-5.91602-.46484-9.91797-1.3916-12.00586-1.50879-2.89844-4.98926-4.3501-10.44043-4.3501h-3.30566Z"/><path class="cls-3" d="M519.54053,249.58545c-7.54199,12.52783-21.22852,18.79199-41.06445,18.79199-20.87988,0-35.14746-5.27734-42.80371-15.83398-6.49805-9.16211-9.74414-24.59131-9.74414-46.28418,0-21.57593,2.66699-37.11914,8.00391-46.63184,7.07422-12.87598,20.47266-19.31396,40.19434-19.31396,21.22754,0,35.78418,5.21973,43.67383,15.65991,6.84277,9.16479,10.26562,24.65088,10.26562,46.45801,0,21.92407-2.84375,37.6438-8.52539,47.15405ZM490.65576,217.91748v-8.87402c0-.5791-.05957-1.21826-.17383-1.91406v-1.91406c0-12.06299-.34766-20.47217-1.04395-25.22998-1.74023-12.06299-5.62793-18.09595-11.6582-18.09595-7.19336,0-11.65723,5.27979-13.39746,15.83398-.23438,1.62573-.43555,4.49683-.60938,8.61304-.17383,4.1189-.26074,9.48291-.26074,16.09497,0,13.10962.34766,21.92407,1.04395,26.448,1.9707,12.41382,6.14746,18.61792,12.52832,18.61792,9.04785,0,13.57129-9.85815,13.57129-29.57983Z"/><path class="cls-3" d="M611.32568,164.49951c-3.13281-1.50635-8.41211-2.26221-15.83398-2.26221-10.78809,0-17.80859,3.8877-21.05469,11.6582-2.08789,4.75781-3.13184,16.52979-3.13184,35.32178,0,14.38501.92773,23.49023,2.78418,27.31812,3.13184,6.95996,10.84473,10.43994,23.1416,10.43994,5.33496,0,9.74414-.75317,13.22461-2.26196,3.13184-1.39209,6.84277-3.88525,11.13574-7.48193v28.18799c-9.16504,1.97119-19.72168,2.95801-31.66797,2.95801-6.72852,0-12.76172-.17407-18.0957-.52197-16.125-1.04395-27.08691-7.24829-32.88672-18.61816-4.17578-8.35205-6.26367-21.63306-6.26367-39.84595,0-21.92407,2.78418-38.04614,8.35254-48.37183,7.42188-13.68652,21.11035-20.53223,41.06348-20.53223,4.52441,0,10.11914.11694,16.79102.34814,6.66895.23389,14.5293.58179,23.57715,1.04395v33.23389c-3.82812-5.45117-7.54199-8.98828-11.13574-10.61377Z"/><path class="cls-3" d="M714.95752,193.73145c5.68164,2.66968,8.98828,7.71582,9.91797,15.13794.11426.92993.20117,3.27881.26074,7.04712.05664,3.77075.08691,9.02051.08691,15.74683v21.05396c0,1.62598-.05957,3.47998-.17383,5.56812v6.95996h-36.36621l.17383-24.70801c0-.69604.02734-1.53613.08691-2.52295.05762-.98413.08691-2.05811.08691-3.21899,0-1.1582.02734-2.26221.08691-3.30615.05762-1.04395.08789-1.91406.08789-2.60986,0-5.79907-.9873-10.14917-2.95801-13.05005-2.20508-3.24634-6.20703-4.87183-12.00684-4.87183h-5.56738v54.28784h-36.36621v-106.66187c0-4.63818-1.50879-9.68433-4.52441-15.13818h40.89062v38.802c1.50586-1.5061,3.30566-3.42017,5.39355-5.74194,2.08789-2.31909,4.52441-5.10303,7.30859-8.35205,5.56738-6.37817,8.35156-11.54102,8.35156-15.48584,0-1.27515-.8125-4.3501-2.43555-9.22217h42.97754l-34.27832,47.50195c8.81445,0,15.13867.92993,18.9668,2.78418Z"/><path class="cls-3" d="M774.20264,236.70947h-25.4043l-6.08984-73.60205c-.58203-7.42236-3.19141-13.97705-7.83008-19.66211h48.37207l-9.04785,93.26416ZM777.68213,265.24536h-35.84375c0-3.82788-.46484-6.78589-1.3916-8.87402-.23438-.46216-.81348-1.27515-1.74023-2.43604-.92969-1.15796-2.20508-2.72412-3.82812-4.698h42.80371v16.00806Z"/></g></g></svg>