<?xml version="1.0" encoding="UTF-8"?><svg id="_レイヤー_2" xmlns="http://www.w3.org/2000/svg" xmlns:xlink="http://www.w3.org/1999/xlink" viewBox="0 0 1066 362"><defs><style>.cls-1{clip-path:url(#clippath);}.cls-2{fill:none;}.cls-2,.cls-3{stroke-width:0px;}.cls-3{fill:#c45aff;}</style><clipPath id="clippath"><rect class="cls-2" width="1066" height="362"/></clipPath></defs><g id="bg_風景_"><g class="cls-1"><path class="cls-3" d="M115.29346,222.12793c-3.17578-1.42798-8.33008-2.14185-15.46973-2.14185h-9.99609v117.33398c0,5.55566,1.98242,11.7439,5.9502,18.56396h-55.92969v-135.89795h-10.23438c-5.55566,0-10.07812.9519-13.56641,2.85596-2.22363,1.27173-5.87109,4.20581-10.94727,8.80591v-42.12598h122.09375v42.12598c-6.50781-5.71191-10.47266-8.88403-11.90039-9.52002Z"/><path class="cls-3" d="M218.22705,219.74805c0-3.96411-.04102-7.25903-.11914-9.87695-.08203-2.61816-.20117-4.55933-.35742-5.83105-.47559-3.80811-2.37891-8.72412-5.71094-14.7561h55.92969v166.6001h-49.98047v-76.63599h-28.32227v76.63599h-49.74219v-147.32202c0-5.39209-2.06348-11.81812-6.1875-19.27808h55.92969v58.78613h28.32227l.23828-28.32202Z"/><path class="cls-3" d="M397.31885,231.17212c-6.82422-6.82031-12.21973-10.86621-16.18359-12.13818-2.85645-.9519-9.67969-1.42798-20.46875-1.42798h-15.70703c-1.27246,0-2.7002.08179-4.28516.23804h-5.23535v31.41602h53.07422v30.93994h-53.07422v46.41016h38.08008c5.86816,0,10.38965-1.10815,13.56543-3.33203.63281-.31616,1.82227-1.26807,3.57031-2.85596,1.74414-1.58423,4.125-3.88623,7.14062-6.9021v42.36401h-112.09863v-145.41797c0-7.14014-2.06348-14.19824-6.18848-21.18213h117.81055v41.88818Z"/><path class="cls-3" d="M547.25537,283.05591l31.41602,72.82812h-63.06934c.95117-5.39209,1.42773-9.36011,1.42773-11.8999,0-3.48828-3.17578-11.90015-9.52051-25.22803-1.27148-3.01221-2.97461-6.70117-5.11621-11.06714-2.14258-4.36206-4.6416-9.479-7.49805-15.35083v63.5459h-49.74219v-147.08398c0-6.02808-2.06348-12.53223-6.1875-19.51611h80.68164c17.76855,0,30.22656,3.96802,37.36719,11.90015,7.13867,7.93579,10.70898,20.86597,10.70898,38.79395,0,22.05591-6.82422,36.41406-20.46777,43.07788ZM494.89502,217.60596v42.84009c4.125,0,7.53516-.27515,10.23438-.83301,2.69629-.5542,4.79688-1.58423,6.30664-3.09399,1.50586-1.5061,2.57812-3.60718,3.21289-6.30713.63281-2.69604.95312-6.10596.95312-10.23389,0-8.09204-.63672-13.56592-1.9043-16.42212-2.06445-3.96411-6.82422-5.94995-14.28027-5.94995h-4.52246Z"/><path class="cls-3" d="M705.18994,334.46411c-10.31641,17.13599-29.03711,25.70386-56.16797,25.70386-28.56055,0-48.07617-7.21802-58.54883-21.65796-8.88672-12.53223-13.32812-33.63599-13.32812-63.30786,0-29.51221,3.64844-50.77222,10.94922-63.78418,9.67578-17.61206,28.00195-26.41797,54.97754-26.41797,29.03613,0,48.94629,7.14014,59.7373,21.41992,9.36035,12.53589,14.04297,33.71802,14.04297,63.54614,0,29.98804-3.89062,51.48975-11.66211,64.49805ZM665.68213,291.14795v-12.13794c0-.79199-.08203-1.66602-.23828-2.61792v-2.61816c0-16.5-.47656-28.0022-1.42773-34.51001-2.38086-16.5-7.69824-24.75195-15.94727-24.75195-9.83984,0-15.94531,7.22192-18.3252,21.65796-.31934,2.22388-.59473,6.15088-.83301,11.78101-.23828,5.63403-.35742,12.97119-.35742,22.01514,0,17.93188.47656,29.98804,1.42773,36.17603,2.69727,16.97974,8.4082,25.46606,17.13672,25.46606,12.37598,0,18.56445-13.48438,18.56445-40.46021Z"/><path class="cls-3" d="M830.73389,218.08203c-4.28418-2.0603-11.50586-3.09399-21.65723-3.09399-14.75684,0-24.3584,5.31787-28.79883,15.94604-2.85547,6.50781-4.2832,22.60986-4.2832,48.31396,0,19.67578,1.26758,32.12988,3.80664,37.36597,4.28516,9.52002,14.83496,14.28003,31.6543,14.28003,7.29688,0,13.32812-1.03003,18.08789-3.09399,4.28516-1.90405,9.36133-5.31421,15.23242-10.23413v38.55615c-12.53516,2.69604-26.97559,4.0459-43.31641,4.0459-9.20312,0-17.45508-.23804-24.75195-.71387-22.05566-1.42798-37.04883-9.91431-44.98145-25.46606-5.71191-11.42407-8.56738-29.59009-8.56738-54.50195,0-29.98804,3.80664-52.04028,11.42383-66.16406,10.15234-18.72021,28.875-28.08398,56.16797-28.08398,6.1875,0,13.84082.15991,22.9668.47607,9.12109.31982,19.87305.79565,32.24805,1.42798v45.45801c-5.23535-7.45605-10.31445-12.29419-15.23145-14.51807Z"/><path class="cls-3" d="M972.48486,258.06592c7.77148,3.65186,12.29297,10.55396,13.56543,20.70605.15625,1.27197.27539,4.48486.35645,9.63916.07812,5.15771.11914,12.33862.11914,21.53882v28.7981c0,2.22388-.08203,4.76001-.23828,7.61597v9.52002h-49.74121l.2373-33.7959c0-.95215.03711-2.10107.11914-3.45117.07812-1.34619.11914-2.81494.11914-4.40283,0-1.58423.03711-3.09399.11914-4.52222.07812-1.42798.11914-2.61792.11914-3.56982,0-7.93213-1.34961-13.88208-4.0459-17.8501-3.0166-4.44019-8.49023-6.66406-16.42188-6.66406h-7.61621v74.2561h-49.74219v-145.89404c0-6.34424-2.06445-13.24609-6.1875-20.70605h55.92969v53.07422c2.06055-2.0603,4.52148-4.67822,7.37793-7.854,2.85645-3.17212,6.18848-6.98022,9.99609-11.42407,7.61621-8.72437,11.42383-15.78613,11.42383-21.18213,0-1.7439-1.1123-5.94995-3.33203-12.61401h58.78613l-46.88574,64.97412c12.05566,0,20.70605,1.27173,25.94238,3.80786Z"/><path class="cls-3" d="M1053.52002,316.85205h-34.74805l-8.33008-100.67407c-.79492-10.1521-4.36523-19.11816-10.70898-26.89404h66.16309l-12.37598,127.56812ZM1058.27979,355.88403h-49.02734c0-5.23608-.63672-9.28198-1.9043-12.13794-.32031-.63232-1.11133-1.74414-2.37988-3.33203-1.27246-1.58423-3.0166-3.72632-5.23535-6.42603h58.54688v21.896Z"/></g></g></svg>