<?xml version="1.0" encoding="UTF-8"?><svg id="_レイヤー_2" xmlns="http://www.w3.org/2000/svg" xmlns:xlink="http://www.w3.org/1999/xlink" viewBox="0 0 1066 362"><defs><style>.cls-1{clip-path:url(#clippath);}.cls-2{fill:none;}.cls-2,.cls-3{stroke-width:0px;}.cls-3{fill:#c45aff;}</style><clipPath id="clippath"><rect class="cls-2" width="1066" height="362"/></clipPath></defs><g id="bg_風景_"><g class="cls-1"><path class="cls-3" d="M103.15869,82.11011c10.94727,2.53979,18.48145,7.77588,22.60938,15.70801,3.17188,6.3479,4.75977,15.70801,4.75977,28.08398,0,19.51587-4.52148,32.21167-13.56543,38.07983-6.9834,4.604-20.5498,6.9021-40.69824,6.9021H6.2915V25.46606c0-4.76001-.39746-8.48633-1.18945-11.18604-.47656-1.42798-2.14258-4.76001-4.99805-9.99609h87.3457c7.14062,0,13.24609.677,18.32617,2.02319,5.07617,1.34985,9.20117,3.56982,12.37695,6.66382,3.17188,3.09399,5.47266,7.14014,6.90137,12.13818,1.42773,4.9978,2.1416,11.06689,2.1416,18.20679,0,21.73999-8.01367,34.66992-24.03711,38.79419ZM56.03369,34.03394v31.17798h3.09473c6.18848,0,10.5498-.79199,13.08984-2.37988,3.33203-2.0603,4.99805-6.1062,4.99805-12.13794,0-6.66406-1.19043-11.22314-3.57031-13.68506-2.37988-2.45801-6.74512-3.52905-13.08984-3.21289l-4.52246.23779ZM56.03369,94.72412v47.83789c9.83594,0,16.2627-1.26807,19.27832-3.80786,3.33203-2.53638,4.99805-8.4082,4.99805-17.61206,0-9.36011-1.03418-15.78613-3.09375-19.27808-2.85645-4.76001-8.56836-7.13989-17.13574-7.13989h-4.04688Z"/><path class="cls-3" d="M264.354,149.46411c-10.31543,17.13599-29.03516,25.70386-56.16797,25.70386-28.55957,0-48.07617-7.21802-58.54688-21.65796-8.88867-12.53223-13.32812-33.63599-13.32812-63.30786,0-29.51221,3.64746-50.77222,10.94727-63.78418C156.93408,8.80591,175.26025,0,202.23682,0c29.03516,0,48.94531,7.14014,59.73828,21.41992,9.35938,12.53589,14.04102,33.71802,14.04102,63.54614,0,29.98804-3.88867,51.48975-11.66211,64.49805ZM224.84619,106.14795v-12.13794c0-.79199-.08203-1.66602-.23828-2.61792v-2.61816c0-16.5-.47461-28.0022-1.42773-34.51001-2.37891-16.5-7.69727-24.75195-15.94531-24.75195-9.83984,0-15.94629,7.22192-18.32617,21.65796-.32031,2.22388-.5957,6.15088-.83301,11.78101-.23828,5.63403-.35645,12.97119-.35645,22.01514,0,17.93188.47559,29.98804,1.42773,36.17603,2.69531,16.97974,8.4082,25.46606,17.13574,25.46606,12.37598,0,18.56348-13.48438,18.56348-40.46021Z"/><path class="cls-3" d="M389.89893,33.08203c-4.2832-2.0603-11.50586-3.09399-21.6582-3.09399-14.75586,0-24.35742,5.31787-28.79785,15.94604-2.85645,6.50781-4.28418,22.60986-4.28418,48.31396,0,19.67578,1.26855,32.12988,3.80859,37.36597,4.2832,9.52002,14.83398,14.28003,31.6543,14.28003,7.29492,0,13.32812-1.03003,18.08789-3.09399,4.2832-1.90405,9.35938-5.31421,15.23145-10.23413v38.55615c-12.53613,2.69604-26.97559,4.0459-43.31543,4.0459-9.20508,0-17.45703-.23804-24.75195-.71387-22.05664-1.42798-37.05078-9.91431-44.98242-25.46606-5.71191-11.42407-8.56836-29.59009-8.56836-54.50195,0-29.98804,3.80859-52.04028,11.42383-66.16406C303.89893,9.60181,322.62354.23804,349.91455.23804c6.18848,0,13.8418.15991,22.9668.47607,9.12305.31982,19.87305.79565,32.25,1.42798v45.45801c-5.23633-7.45605-10.31641-12.29419-15.23242-14.51807Z"/><path class="cls-3" d="M517.93994,33.08203c-4.2832-2.0603-11.50586-3.09399-21.65723-3.09399-14.75684,0-24.3584,5.31787-28.79785,15.94604-2.85645,6.50781-4.28418,22.60986-4.28418,48.31396,0,19.67578,1.26855,32.12988,3.80762,37.36597,4.28418,9.52002,14.83398,14.28003,31.6543,14.28003,7.2959,0,13.32812-1.03003,18.08789-3.09399,4.28418-1.90405,9.36035-5.31421,15.23242-10.23413v38.55615c-12.53613,2.69604-26.97656,4.0459-43.31641,4.0459-9.2041,0-17.45605-.23804-24.75195-.71387-22.05664-1.42798-37.0498-9.91431-44.98242-25.46606-5.71094-11.42407-8.56738-29.59009-8.56738-54.50195,0-29.98804,3.80762-52.04028,11.42383-66.16406C431.94092,9.60181,450.66455.23804,477.95654.23804c6.18848,0,13.84082.15991,22.9668.47607,9.12207.31982,19.87305.79565,32.24902,1.42798v45.45801c-5.23633-7.45605-10.31543-12.29419-15.23242-14.51807Z"/><path class="cls-3" d="M624.94189,34.74805c0-3.96411-.04102-7.25903-.11914-9.87695-.08105-2.61816-.2002-4.55933-.35645-5.83105-.47559-3.80811-2.37988-8.72412-5.71191-14.7561h55.92969v166.6001h-49.98047v-76.63599h-28.32129v76.63599h-49.74219V23.56201c0-5.39209-2.06348-11.81812-6.18848-19.27808h55.93066v58.78613h28.32129l.23828-28.32202Z"/><path class="cls-3" d="M742.15479,170.88403h-49.74219V23.56201c0-4.91626-2.06445-11.34204-6.18848-19.27808h55.93066v166.6001Z"/></g></g></svg>