<?xml version="1.0" encoding="UTF-8"?><svg id="_レイヤー_2" xmlns="http://www.w3.org/2000/svg" xmlns:xlink="http://www.w3.org/1999/xlink" viewBox="0 0 784 270"><defs><style>.cls-1{clip-path:url(#clippath);}.cls-2{fill:none;}.cls-2,.cls-3{stroke-width:0px;}.cls-3{fill:#c45aff;}</style><clipPath id="clippath"><rect class="cls-2" width="784" height="270"/></clipPath></defs><g id="bg_風景_"><g class="cls-1"><path class="cls-3" d="M76.09229,60.03003c8.00391,1.85693,13.51172,5.68481,16.5293,11.48413,2.31934,4.64062,3.48047,11.48389,3.48047,20.53174,0,14.26807-3.30566,23.5498-9.91797,27.84009-5.10547,3.36597-15.02441,5.04614-29.75391,5.04614H5.27393V18.61816c0-3.47998-.29102-6.20435-.87012-8.17822-.34766-1.04395-1.56543-3.47998-3.6543-7.30811h63.8584c5.21973,0,9.68457.49512,13.39844,1.479,3.71094.98706,6.72559,2.61035,9.04785,4.87207,2.31836,2.26221,4.00195,5.22021,5.0459,8.87402,1.04395,3.65405,1.56543,8.09106,1.56543,13.31104,0,15.8938-5.8584,25.34692-17.57324,28.36206ZM41.64014,24.88184v22.79419h2.26172c4.52441,0,7.71289-.5791,9.57031-1.73999,2.43555-1.50635,3.65332-4.46436,3.65332-8.87402,0-4.87207-.86914-8.20508-2.60938-10.00488-1.74023-1.79736-4.93164-2.58008-9.57031-2.34912l-3.30566.17383ZM41.64014,69.25195v34.97412c7.19043,0,11.88867-.92725,14.09375-2.78418,2.43652-1.854,3.6543-6.14697,3.6543-12.87598,0-6.84302-.75586-11.54102-2.2627-14.09375-2.08789-3.47998-6.26367-5.22021-12.52734-5.22021h-2.95801Z"/><path class="cls-3" d="M193.94092,109.27197c-7.54199,12.52808-21.22852,18.79199-41.06445,18.79199-20.87988,0-35.14746-5.2771-42.80371-15.83398-6.49805-9.16211-9.74414-24.59106-9.74414-46.28394,0-21.57593,2.66699-37.11914,8.00391-46.63208C115.40674,6.43799,128.80518,0,148.52686,0c21.22754,0,35.78418,5.21997,43.67383,15.66016,6.84277,9.16479,10.26562,24.65088,10.26562,46.45801,0,21.92383-2.84375,37.64355-8.52539,47.15381ZM165.05615,77.604v-8.87402c0-.5791-.05957-1.21802-.17383-1.91406v-1.91406c0-12.06299-.34766-20.47217-1.04395-25.22998-1.74023-12.06299-5.62793-18.0957-11.6582-18.0957-7.19336,0-11.65723,5.27979-13.39746,15.83398-.23438,1.62549-.43555,4.49658-.60938,8.61279-.17383,4.11914-.26074,9.48291-.26074,16.09521,0,13.10962.34766,21.92383,1.04395,26.44775,1.9707,12.41406,6.14746,18.61816,12.52832,18.61816,9.04785,0,13.57129-9.8584,13.57129-29.58008Z"/><path class="cls-3" d="M285.72607,24.18604c-3.13281-1.50635-8.41211-2.26221-15.83398-2.26221-10.78809,0-17.80859,3.88794-21.05469,11.6582-2.08789,4.75781-3.13184,16.53003-3.13184,35.32202,0,14.38501.92773,23.48999,2.78418,27.31812,3.13184,6.95996,10.84473,10.43994,23.1416,10.43994,5.33496,0,9.74414-.75317,13.22461-2.26221,3.13184-1.39185,6.84277-3.88501,11.13574-7.48193v28.18799c-9.16504,1.97119-19.72168,2.95801-31.66797,2.95801-6.72852,0-12.76172-.17383-18.0957-.52197-16.125-1.04395-27.08691-7.24805-32.88672-18.61816-4.17578-8.35181-6.26367-21.63281-6.26367-39.8457,0-21.92407,2.78418-38.04639,8.35254-48.37207C222.85205,7.01978,236.54053.17383,256.49365.17383c4.52441,0,10.11914.11719,16.79102.34814,6.66895.23389,14.5293.58203,23.57715,1.04395v33.23413c-3.82812-5.45117-7.54199-8.98828-11.13574-10.61401Z"/><path class="cls-3" d="M379.33643,24.18604c-3.13281-1.50635-8.41211-2.26221-15.83398-2.26221-10.78809,0-17.80859,3.88794-21.05469,11.6582-2.08789,4.75781-3.13184,16.53003-3.13184,35.32202,0,14.38501.92773,23.48999,2.78418,27.31812,3.13184,6.95996,10.84473,10.43994,23.1416,10.43994,5.33496,0,9.74414-.75317,13.22461-2.26221,3.13184-1.39185,6.84277-3.88501,11.13574-7.48193v28.18799c-9.16504,1.97119-19.72168,2.95801-31.66797,2.95801-6.72852,0-12.76172-.17383-18.0957-.52197-16.125-1.04395-27.08691-7.24805-32.88672-18.61816-4.17578-8.35181-6.26367-21.63281-6.26367-39.8457,0-21.92407,2.78418-38.04639,8.35254-48.37207C316.4624,7.01978,330.15088.17383,350.104.17383c4.52441,0,10.11914.11719,16.79102.34814,6.66895.23389,14.5293.58203,23.57715,1.04395v33.23413c-3.82812-5.45117-7.54199-8.98828-11.13574-10.61401Z"/><path class="cls-3" d="M457.56396,25.40405c0-2.89819-.03027-5.30688-.08691-7.22095-.05957-1.91406-.14648-3.33325-.26074-4.26318-.34863-2.78394-1.74023-6.37793-4.17676-10.78809h40.89062v121.80029h-36.54004v-56.02808h-20.70605v56.02808h-36.36621V17.22607c0-3.94238-1.50879-8.64014-4.52441-14.09424h40.89062v42.97803h20.70605l.17383-20.70581Z"/><path class="cls-3" d="M543.25635,124.93213h-36.36621V17.22607c0-3.59424-1.50879-8.29224-4.52441-14.09424h40.89062v121.80029Z"/></g></g></svg>