<?xml version="1.0" encoding="UTF-8"?><svg id="_レイヤー_2" xmlns="http://www.w3.org/2000/svg" xmlns:xlink="http://www.w3.org/1999/xlink" viewBox="0 0 784 270"><defs><style>.cls-1{clip-path:url(#clippath);}.cls-2{fill:none;}.cls-2,.cls-3{stroke-width:0px;}.cls-3{fill:#ff0;}</style><clipPath id="clippath"><rect class="cls-2" width="784" height="270"/></clipPath></defs><g id="bg_風景_"><g class="cls-1"><path class="cls-3" d="M29.38157,121.02344c-.7207-.32373-1.88965-.48584-3.50977-.48584h-2.26758v26.62207c0,1.26025.44922,2.66455,1.34961,4.21191h-12.69043v-30.83398h-2.32129c-1.26074,0-2.28711.21582-3.07812.64795-.50488.28857-1.33203.9541-2.48438,1.99805v-9.55811h27.70215v9.55811c-1.47656-1.2959-2.37598-2.01562-2.7002-2.16016Z"/><path class="cls-3" d="M53.51926,120.4834c0-.89941-.00879-1.64697-.02637-2.24072-.01855-.59424-.0459-1.03467-.08105-1.32324-.1084-.86377-.54004-1.97949-1.2959-3.34766h12.68945v37.7998h-11.33984v-17.38818h-6.42578v17.38818h-11.28613v-33.42578c0-1.22363-.46875-2.68164-1.4043-4.37402h12.69043v13.33789h6.42578l.05371-6.42627Z"/><path class="cls-3" d="M95.42258,123.07568c-1.54883-1.54736-2.77246-2.46533-3.67188-2.75391-.64844-.21631-2.19629-.32422-4.64453-.32422h-3.56348c-.28906,0-.61328.01855-.97266.0542h-1.1875v7.12793h12.04199v7.02002h-12.04199v10.52979h8.63965c1.33203,0,2.35742-.25146,3.07812-.75586.14355-.07178.41309-.2876.80957-.64795.39648-.35938.93652-.88184,1.62012-1.56592v9.61182h-25.43359v-32.99414c0-1.61963-.46875-3.22119-1.4043-4.80566h26.73047v9.50391Z"/><path class="cls-3" d="M131.60129,151.37158h-11.61035l-2.05176-7.39795h-10.53027c-.07227.36035-.28809,1.09863-.64746,2.21387-.32422.93652-.48633,1.67432-.48633,2.21387,0,.86426.32422,1.85498.97266,2.97021h-9.39648l9.55762-31.21191c.54004-1.76367.81055-3.02393.81055-3.78027,0-.5752-.25195-1.51172-.75586-2.80762h13.76953l10.36816,37.7998ZM112.9177,125.77539l-3.51074,11.50195h6.69629l-3.18555-11.50195Z"/><path class="cls-3" d="M155.52219,121.02344c-.7207-.32373-1.88965-.48584-3.50977-.48584h-2.26758v26.62207c0,1.26025.44922,2.66455,1.34961,4.21191h-12.69043v-30.83398h-2.32129c-1.26074,0-2.28711.21582-3.07812.64795-.50488.28857-1.33203.9541-2.48438,1.99805v-9.55811h27.70215v9.55811c-1.47656-1.2959-2.37598-2.01562-2.7002-2.16016Z"/><path class="cls-3" d="M187.22044,123.07568c-1.54883-1.54736-2.77246-2.46533-3.67188-2.75391-.64844-.21631-2.19629-.32422-4.64453-.32422h-3.56348c-.28906,0-.61328.01855-.97266.0542h-1.1875v7.12793h12.04199v7.02002h-12.04199v10.52979h8.63965c1.33203,0,2.35742-.25146,3.07812-.75586.14355-.07178.41309-.2876.80957-.64795.39648-.35938.93652-.88184,1.62012-1.56592v9.61182h-25.43359v-32.99414c0-1.61963-.46875-3.22119-1.4043-4.80566h26.73047v9.50391Z"/><path class="cls-3" d="M214.97532,134.84766l7.12793,16.52393h-14.30957c.21582-1.22363.32324-2.12354.32324-2.7002,0-.79102-.7207-2.69971-2.16016-5.72363-.28809-.68359-.6748-1.52051-1.16016-2.51123-.48633-.98975-1.05371-2.15088-1.70117-3.48291v14.41797h-11.28613v-33.37207c0-1.36768-.46875-2.84326-1.4043-4.42773h18.30664c4.03125,0,6.85742.8999,8.47754,2.69971,1.62012,1.80078,2.42969,4.73438,2.42969,8.80225,0,5.00391-1.54785,8.26172-4.64355,9.77393ZM203.09544,119.99756v9.72021c.93555,0,1.70898-.0625,2.32129-.18896.6123-.12598,1.08887-.35986,1.43164-.70215.3418-.3418.58496-.81836.72852-1.43115.14355-.61182.2168-1.38525.2168-2.32178,0-1.83594-.14453-3.07812-.43262-3.72607-.46777-.89941-1.54785-1.3501-3.24023-1.3501h-1.02539Z"/><path class="cls-3" d="M253.53098,120.10547c-.97168-.46729-2.61035-.70166-4.91406-.70166-3.34766,0-5.52637,1.20654-6.5332,3.61768-.64844,1.47656-.97266,5.12988-.97266,10.96191,0,4.46436.28809,7.29004.86426,8.47803.97168,2.16016,3.36621,3.24023,7.18164,3.24023,1.65625,0,3.02441-.23389,4.10449-.70215.97168-.43213,2.12402-1.20557,3.45605-2.32178v8.74805c-2.84473.61133-6.12109.91797-9.82812.91797-2.08789,0-3.96094-.0542-5.61621-.16211-5.00391-.32422-8.40625-2.24951-10.20605-5.77783-1.2959-2.59229-1.94336-6.71387-1.94336-12.36621,0-6.8042.86328-11.80762,2.5918-15.01221,2.30371-4.24707,6.55176-6.37158,12.74414-6.37158,1.40332,0,3.13965.03613,5.21094.10791,2.06934.07227,4.50879.18066,7.31641.32373v10.31396c-1.1875-1.69141-2.33984-2.78906-3.45605-3.29395Z"/><path class="cls-3" d="M288.52317,146.51172c-2.34082,3.8877-6.58887,5.83203-12.74414,5.83203-6.48047,0-10.9082-1.6377-13.28418-4.91406-2.0166-2.84375-3.02441-7.63184-3.02441-14.36426,0-6.6958.82812-11.51953,2.48438-14.47168,2.19531-3.99609,6.35352-5.99414,12.47363-5.99414,6.58789,0,11.10547,1.62012,13.55469,4.85986,2.12305,2.84424,3.18555,7.65039,3.18555,14.41797,0,6.8042-.88281,11.68262-2.64551,14.63428ZM279.55833,136.68359v-2.75391c0-.17969-.01855-.37793-.05371-.59424v-.59375c0-3.74365-.10742-6.35352-.32422-7.83008-.54004-3.74365-1.74609-5.61621-3.61719-5.61621-2.2334,0-3.61816,1.63867-4.1582,4.91406-.07324.50488-.13574,1.39551-.18945,2.67334s-.08105,2.94287-.08105,4.99463c0,4.06885.1084,6.8042.32422,8.20801.61133,3.85254,1.9082,5.77832,3.8877,5.77832,2.80859,0,4.21191-3.05957,4.21191-9.18018Z"/><path class="cls-3" d="M314.4968,128.69141l3.72656-15.11963h11.66406l7.07324,37.7998h-12.90527c.54004-1.2959.80957-2.26807.80957-2.91602,0-.17969-.05371-.5752-.16211-1.18799-.10742-.61182-.25195-1.45801-.43164-2.53809l-2.37598-13.01367-4.64453,19.65576h-9.71973l-4.10352-20.14209-2.53809,13.33789c-.18066.93652-.31543,1.71045-.40527,2.32227-.08984.6123-.13477,1.04443-.13477,1.2959,0,.82861.37793,1.89014,1.13379,3.18604h-9.3418l5.83203-31.31982c.25098-1.25977.37793-2.12402.37793-2.59229,0-.64795-.36035-1.94385-1.08008-3.8877h14.04004l3.18555,15.11963Z"/><path class="cls-3" d="M363.42063,136.8457c-1.9082,1.22412-5.99414,1.83594-12.25781,1.83594l-.05469,5.77783c-.03613,1.87256,0,3.07812.1084,3.61816.07227.43213.22461.91797.45898,1.45801.2334.54004.53125,1.15234.89062,1.83594h-12.68945v-33.37207c0-1.36768-.46875-2.84326-1.4043-4.42773h19.22461c3.7793,0,6.42578,1.09814,7.9375,3.29395,1.2959,1.83594,1.94434,4.71631,1.94434,8.63965,0,5.83203-1.38672,9.6123-4.1582,11.34033ZM351.16282,119.99756v11.98779c1.65527,0,2.84277-.46729,3.56348-1.40381.54004-.7915.81055-2.06982.81055-3.83398,0-2.26807-.1084-3.76123-.32422-4.48193-.43164-1.51221-1.51172-2.26807-3.24023-2.26807h-.80957Z"/><path class="cls-3" d="M382.69895,151.37158h-11.28613v-33.42578c0-1.11572-.46875-2.57373-1.4043-4.37402h12.69043v37.7998Z"/><path class="cls-3" d="M410.45481,151.37158h-22.51758v-32.72412c0-1.72803-.46875-3.41943-1.4043-5.07568h12.69043v31.15771h5.72363c1.33203,0,2.35742-.25146,3.07812-.75586.14355-.07178.41309-.2876.80957-.64795.39648-.35938.93652-.88184,1.62012-1.56592v9.61182Z"/><path class="cls-3" d="M446.25657,151.37158h-11.61035l-2.05176-7.39795h-10.53027c-.07227.36035-.28809,1.09863-.64746,2.21387-.32422.93652-.48633,1.67432-.48633,2.21387,0,.86426.32422,1.85498.97266,2.97021h-9.39648l9.55762-31.21191c.54004-1.76367.81055-3.02393.81055-3.78027,0-.5752-.25195-1.51172-.75586-2.80762h13.76953l10.36816,37.7998ZM427.57297,125.77539l-3.51074,11.50195h6.69629l-3.18555-11.50195Z"/><path class="cls-3" d="M470.17747,121.02344c-.7207-.32373-1.88965-.48584-3.50977-.48584h-2.26758v26.62207c0,1.26025.44922,2.66455,1.34961,4.21191h-12.69043v-30.83398h-2.32129c-1.26074,0-2.28711.21582-3.07812.64795-.50488.28857-1.33203.9541-2.48438,1.99805v-9.55811h27.70215v9.55811c-1.47656-1.2959-2.37598-2.01562-2.7002-2.16016Z"/><path class="cls-3" d="M487.83567,151.37158h-11.28613v-33.42578c0-1.11572-.46875-2.57373-1.4043-4.37402h12.69043v37.7998Z"/><path class="cls-3" d="M520.56028,146.51172c-2.34082,3.8877-6.58887,5.83203-12.74414,5.83203-6.48047,0-10.9082-1.6377-13.28418-4.91406-2.0166-2.84375-3.02441-7.63184-3.02441-14.36426,0-6.6958.82812-11.51953,2.48438-14.47168,2.19531-3.99609,6.35352-5.99414,12.47363-5.99414,6.58789,0,11.10547,1.62012,13.55469,4.85986,2.12305,2.84424,3.18555,7.65039,3.18555,14.41797,0,6.8042-.88281,11.68262-2.64551,14.63428ZM511.59544,136.68359v-2.75391c0-.17969-.01855-.37793-.05371-.59424v-.59375c0-3.74365-.10742-6.35352-.32422-7.83008-.54004-3.74365-1.74609-5.61621-3.61719-5.61621-2.2334,0-3.61816,1.63867-4.1582,4.91406-.07324.50488-.13574,1.39551-.18945,2.67334s-.08105,2.94287-.08105,4.99463c0,4.06885.1084,6.8042.32422,8.20801.61133,3.85254,1.9082,5.77832,3.8877,5.77832,2.80859,0,4.21191-3.05957,4.21191-9.18018Z"/><path class="cls-3" d="M545.83274,113.57178h7.28906v37.7998h-9.07129l-9.82812-19.27783v5.07568l-.05371,5.13037v3.23975c0,.79248.01758,1.27832.05371,1.45801.17969,1.69238.62891,3.15039,1.34961,4.37402h-8.63965v-33.10205c0-1.47559-.46875-3.0415-1.4043-4.69775h11.87988l8.4248,16.52393v-16.52393Z"/></g></g></svg>