<?xml version="1.0" encoding="UTF-8"?><svg id="_レイヤー_2" xmlns="http://www.w3.org/2000/svg" xmlns:xlink="http://www.w3.org/1999/xlink" viewBox="0 0 1066 362"><defs><style>.cls-1{clip-path:url(#clippath);}.cls-2{fill:none;}.cls-2,.cls-3{stroke-width:0px;}.cls-3{fill:#ff0;}</style><clipPath id="clippath"><rect class="cls-2" width="1066" height="362"/></clipPath></defs><g id="bg_風景_"><g class="cls-1"><path class="cls-3" d="M46.76318,161.52319c-1.21289-.60596-3.18164-.90894-5.90918-.90894h-3.81738v49.79297c0,2.35767.75684,4.98364,2.27246,7.87793h-21.36133v-57.6709h-3.90918c-2.12207,0-3.84863.40381-5.18066,1.21191-.84961.53979-2.24316,1.78491-4.18164,3.73706v-17.8772h46.63184v17.8772c-2.48535-2.42407-4-3.77026-4.54492-4.04004Z"/><path class="cls-3" d="M85.57666,160.51318c0-1.68237-.01562-3.08057-.0459-4.19141-.03125-1.11108-.07617-1.93481-.13574-2.47461-.18164-1.61597-.90918-3.70239-2.18164-6.26196h21.36133v70.69995h-19.08887v-32.52197h-10.81738v32.52197h-18.99805v-62.51904c0-2.28833-.78809-5.01514-2.36328-8.18091h21.36133v24.94702h10.81738l.09082-12.01904Z"/><path class="cls-3" d="M154.29639,165.36108c-2.60645-2.89429-4.66699-4.61133-6.18066-5.15088-1.09082-.40405-3.69727-.60596-7.81738-.60596h-6c-.48535,0-1.03125.03467-1.63574.10083h-2v13.33203h20.27051v13.13013h-20.27051v19.69482h14.54395c2.24121,0,3.96875-.47021,5.18164-1.41382.24121-.13428.69531-.53833,1.36328-1.21216.66602-.67212,1.5752-1.64917,2.72656-2.92896v17.97803h-42.81348v-61.71094c0-3.03003-.78809-6.02539-2.36328-8.98901h44.99512v17.77588Z"/><path class="cls-3" d="M213.38037,218.28516h-19.54395l-3.4541-13.83691h-17.72559c-.12207.67383-.48535,2.05469-1.09082,4.14087-.54492,1.75171-.81738,3.1311-.81738,4.14111,0,1.61597.54492,3.46875,1.63574,5.55493h-15.81641l16.08887-58.37793c.90918-3.29834,1.36328-5.65601,1.36328-7.07007,0-1.07617-.42383-2.82788-1.27246-5.25195h23.17969l17.45312,70.69995ZM181.9292,170.41113l-5.90918,21.51294h11.27148l-5.3623-21.51294Z"/><path class="cls-3" d="M253.64795,161.52319c-1.21289-.60596-3.18164-.90894-5.90918-.90894h-3.81738v49.79297c0,2.35767.75684,4.98364,2.27246,7.87793h-21.36133v-57.6709h-3.90918c-2.12207,0-3.84863.40381-5.18066,1.21191-.84961.53979-2.24316,1.78491-4.18164,3.73706v-17.8772h46.63184v17.8772c-2.48535-2.42407-4-3.77026-4.54492-4.04004Z"/><path class="cls-3" d="M305.18799,165.36108c-2.60645-2.89429-4.66699-4.61133-6.18066-5.15088-1.09082-.40405-3.69727-.60596-7.81738-.60596h-6c-.48535,0-1.03125.03467-1.63574.10083h-2v13.33203h20.27051v13.13013h-20.27051v19.69482h14.54395c2.24121,0,3.96875-.47021,5.18164-1.41382.24121-.13428.69531-.53833,1.36328-1.21216.66602-.67212,1.5752-1.64917,2.72656-2.92896v17.97803h-42.81348v-61.71094c0-3.03003-.78809-6.02539-2.36328-8.98901h44.99512v17.77588Z"/><path class="cls-3" d="M350.09131,187.37915l11.99902,30.90601h-24.08887c.36426-2.28833.5459-3.97217.5459-5.05005,0-1.48022-1.21289-5.05005-3.63672-10.70605-.48535-1.27808-1.13574-2.84375-1.9541-4.69629-.81836-1.85132-1.77246-4.02271-2.86328-6.51465v26.96704h-18.99805v-62.41797c0-2.55811-.78809-5.31836-2.36328-8.28198h30.81543c6.78613,0,11.54395,1.68384,14.27051,5.05005,2.72754,3.36768,4.09082,8.85474,4.09082,16.46289,0,9.35986-2.60645,15.45312-7.81738,18.28101ZM330.09326,159.60425v18.17993c1.5752,0,2.87793-.1167,3.90918-.35352,1.0293-.23511,1.83203-.67236,2.4082-1.31299.5752-.63916.98438-1.53076,1.22754-2.67651.24121-1.14404.36328-2.59131.36328-4.34302,0-3.43408-.24316-5.75708-.72656-6.96899-.78906-1.68237-2.60645-2.5249-5.4541-2.5249h-1.72754Z"/><path class="cls-3" d="M425.08154,159.80615c-1.63672-.87427-4.39453-1.31299-8.27246-1.31299-5.63574,0-9.30273,2.25659-10.99902,6.76709-1.09082,2.76172-1.63574,9.59497-1.63574,20.50293,0,8.34985.48438,13.63501,1.4541,15.85693,1.63672,4.04004,5.66602,6.06006,12.08984,6.06006,2.78711,0,5.09082-.43726,6.9082-1.31299,1.63672-.80811,3.5752-2.25513,5.81738-4.34302v16.36206c-4.78711,1.14404-10.30273,1.71704-16.54297,1.71704-3.51562,0-6.66699-.10107-9.4541-.30322-8.42383-.60596-14.15039-4.20728-17.17969-10.80688-2.18164-4.8479-3.27246-12.55713-3.27246-23.12891,0-12.72607,1.4541-22.08447,4.36328-28.07812,3.87695-7.94434,11.02832-11.91797,21.45215-11.91797,2.36328,0,5.28613.06787,8.77148.2019,3.48438.13574,7.59082.33789,12.31738.6062v19.29077c-2-3.16406-3.94043-5.21729-5.81738-6.16089Z"/><path class="cls-3" d="M482.1665,209.19507c-3.94043,7.27197-11.08984,10.9082-21.45312,10.9082-10.90723,0-18.36133-3.06323-22.36133-9.19116-3.39453-5.31812-5.08984-14.27417-5.08984-26.86597,0-12.52393,1.39258-21.54614,4.18066-27.06787,3.69629-7.47412,10.69531-11.21118,20.99805-11.21118,11.08984,0,18.69434,3.03003,22.81641,9.09009,3.57422,5.31982,5.36328,14.30884,5.36328,26.96704,0,12.72583-1.48633,21.85059-4.4541,27.37085ZM467.07666,190.81323v-5.15112c0-.33618-.03125-.70703-.09082-1.11084v-1.11108c0-7.0022-.18164-11.8833-.5459-14.64502-.9082-7.0022-2.93945-10.50391-6.08984-10.50391-3.75781,0-6.08984,3.0647-6.99902,9.19092-.12207.9436-.22754,2.61011-.31836,4.99951-.09082,2.39087-.13672,5.50439-.13672,9.34253,0,7.60962.18164,12.72583.5459,15.35205,1.0293,7.20557,3.21094,10.80688,6.54492,10.80688,4.72656,0,7.08984-5.72217,7.08984-17.16992Z"/><path class="cls-3" d="M525.88818,175.86523l6.27246-28.28003h19.63477l11.90723,70.69995h-21.72461c.90918-2.42407,1.36328-4.24194,1.36328-5.4541,0-.33594-.09082-1.07617-.27246-2.22192-.18164-1.14404-.4248-2.72705-.72754-4.74707l-4-24.34082-7.81738,36.76392h-16.36133l-6.9082-37.6731-4.27246,24.94702c-.30469,1.75171-.53125,3.19897-.68164,4.34302-.15234,1.14575-.22754,1.95386-.22754,2.42407,0,1.5498.63574,3.53491,1.90918,5.95898h-15.72559l9.81641-58.58008c.42383-2.35596.63672-3.97217.63672-4.8479,0-1.21191-.60645-3.63599-1.81836-7.27197h23.63379l5.36328,28.28003Z"/><path class="cls-3" d="M608.24268,191.11621c-3.21289,2.28979-10.08984,3.43384-20.63477,3.43384l-.09082,10.80713c-.06152,3.50195,0,5.75708.18164,6.76709.12109.80786.37793,1.7168.77246,2.72681.39355,1.01001.89355,2.15576,1.5,3.43408h-21.36133v-62.41797c0-2.55811-.78809-5.31836-2.36328-8.28198h32.36035c6.36328,0,10.81738,2.05469,13.3623,6.16089,2.18164,3.43408,3.27246,8.82178,3.27246,16.16016,0,10.90796-2.33398,17.97803-6.99902,21.20996ZM587.60791,159.60425v22.42188c2.78711,0,4.78613-.87427,5.99902-2.62598.90918-1.48022,1.36426-3.87109,1.36426-7.1709,0-4.24219-.18164-7.0354-.5459-8.38306-.72656-2.82812-2.54492-4.24194-5.4541-4.24194h-1.36328Z"/><path class="cls-3" d="M638.87646,218.28516h-18.99805v-62.51904c0-2.08618-.78809-4.81323-2.36328-8.18091h21.36133v70.69995Z"/><path class="cls-3" d="M683.78076,218.28516h-37.90527v-61.20605c0-3.23193-.78809-6.396-2.36328-9.4939h21.36133v58.27686h9.63574c2.24121,0,3.96777-.47021,5.18066-1.41382.24219-.13428.69629-.53833,1.36426-1.21216.66602-.67212,1.5752-1.64917,2.72656-2.92896v17.97803Z"/><path class="cls-3" d="M742.22998,218.28516h-19.54395l-3.4541-13.83691h-17.72559c-.12207.67383-.48535,2.05469-1.09082,4.14087-.54492,1.75171-.81738,3.1311-.81738,4.14111,0,1.61597.54492,3.46875,1.63574,5.55493h-15.81641l16.08887-58.37793c.90918-3.29834,1.36328-5.65601,1.36328-7.07007,0-1.07617-.42383-2.82788-1.27246-5.25195h23.17969l17.45312,70.69995ZM710.77881,170.41113l-5.90918,21.51294h11.27148l-5.3623-21.51294Z"/><path class="cls-3" d="M780.6792,161.52319c-1.21289-.60596-3.18164-.90894-5.90918-.90894h-3.81738v49.79297c0,2.35767.75684,4.98364,2.27246,7.87793h-21.36133v-57.6709h-3.90918c-2.12207,0-3.84863.40381-5.18066,1.21191-.84961.53979-2.24316,1.78491-4.18164,3.73706v-17.8772h46.63184v17.8772c-2.48535-2.42407-4-3.77026-4.54492-4.04004Z"/><path class="cls-3" d="M808.58447,218.28516h-18.99805v-62.51904c0-2.08618-.78809-4.81323-2.36328-8.18091h21.36133v70.69995Z"/><path class="cls-3" d="M861.85303,209.19507c-3.94043,7.27197-11.08984,10.9082-21.45312,10.9082-10.90723,0-18.36133-3.06323-22.36133-9.19116-3.39453-5.31812-5.08984-14.27417-5.08984-26.86597,0-12.52393,1.39258-21.54614,4.18066-27.06787,3.69629-7.47412,10.69531-11.21118,20.99805-11.21118,11.08984,0,18.69434,3.03003,22.81641,9.09009,3.57422,5.31982,5.36328,14.30884,5.36328,26.96704,0,12.72583-1.48633,21.85059-4.4541,27.37085ZM846.76318,190.81323v-5.15112c0-.33618-.03125-.70703-.09082-1.11084v-1.11108c0-7.0022-.18164-11.8833-.5459-14.64502-.9082-7.0022-2.93945-10.50391-6.08984-10.50391-3.75781,0-6.08984,3.0647-6.99902,9.19092-.12207.9436-.22754,2.61011-.31836,4.99951-.09082,2.39087-.13672,5.50439-.13672,9.34253,0,7.60962.18164,12.72583.5459,15.35205,1.0293,7.20557,3.21094,10.80688,6.54492,10.80688,4.72656,0,7.08984-5.72217,7.08984-17.16992Z"/><path class="cls-3" d="M902.57568,147.58521h12.27148v70.69995h-15.27148l-16.54395-36.05688v9.4939l-.09082,9.59497v6.06006c0,1.48193.03027,2.39087.09082,2.72705.30273,3.16553,1.05957,5.89258,2.27246,8.18091h-14.54395v-61.91309c0-2.76001-.78809-5.68896-2.36328-8.78687h19.99805l14.18066,30.90601v-30.90601Z"/></g></g></svg>