<?xml version="1.0" encoding="UTF-8"?><svg id="_レイヤー_2" xmlns="http://www.w3.org/2000/svg" viewBox="0 0 129.94 965.84"><defs><style>.cls-1{fill:#ff2290;stroke-width:0px;}</style></defs><g id="modal"><path class="cls-1" d="m79.4,80.2c1.2.93,1.46,1.46,1.46,2.13,0,1.6-2.13,1.6-4.65,1.6-3.32,3.59-7.31,6.78-9.31,8.25,4.52,4.26,11.44,9.18,18.62,13.43-5.98,6.92-7.58,9.58-9.18,12.1-5.59-4.52-6.25-4.92-8.78-7.58-2.13,11.57-9.04,12.9-23.01,13.03-.53-3.06-2.93-8.25-3.99-10.37-4.12,2.66-7.71,4.39-9.97,5.59-3.46-4.12-6.38-6.38-7.58-7.18-1.46,5.72-3.06,9.71-4.26,12.9-5.72-3.72-10.37-6.12-17.56-8.38,5.72-13.43,8.78-28.33,8.78-56.66V21.41h21.81V.67l19.02.53c.53,0,2.13.13,2.13,1.33,0,1.06-1.33,2.13-2.13,2.66v1.06h23.01v10.77h-23.01v4.39h30.46v24.87h-9.84c-2.53,9.71-6.12,12.1-12.9,12.1h-14.1c-10.77,0-10.77-3.46-10.77-9.84l-5.72,1.06v12.1h53.33v9.97h-12.24l10.37,8.51Zm-50.94,22.34c-1.06-2.13-1.6-2.93-2.79-4.52-.66,4.79-1.33,7.31-2.13,10.91,3.46-1.33,14.76-6.38,25-15.03-.4-.67-1.2-1.73-1.86-2.79-1.6,1.33-9.04,7.45-18.22,11.44Zm11.17-19.28c-2,.93-3.86,1.86-9.31,4.12-.8-1.46-1.6-2.39-3.19-3.99-.4,5.05-.4,5.59-.93,10.37,4.92-2.39,9.58-4.79,15.29-8.78-.67-.8-1.33-1.33-1.86-1.73Zm-11.97-11.57c0,.93-.13,5.45-.27,6.38,5.05-1.99,7.58-3.32,12.63-6.38h-12.37Zm5.98-38.17h-5.72v6.92l5.72-.8v-6.12Zm15.69,77.4c2.66,0,3.72-1.73,3.72-4.52,0-.93-.13-2.26-.27-3.06-2.39,2.13-5.85,5.05-8.64,6.92,1.46.27,3.19.67,5.19.67Zm13.83-67.96c1.2.53,1.6.66,2.13.93v-10.37h-18.49v4.26l15.56-2.13.8,7.31Zm-9.97,6.52c3.46,0,4.52-1.46,5.45-5.45l-11.84,2.13c0,2.26.27,3.33,3.06,3.33h3.32Zm4.65,22.21c-.8.53-1.33.93-6.25,4.12,3.86,4.39,5.19,5.72,6.25,6.92,2.13-1.73,3.99-3.46,9.97-11.04h-9.97Zm42.69-54.53c1.33,0,2.13.53,2.13,1.46s-.53,1.6-2,2.66v73.41h-15.69V16.49l15.56.67ZM123.29.67c1.2,0,2.53.27,2.53,1.46,0,1.06-.8,1.86-2,2.93v103.07c0,8.38,0,16.09-20.75,16.09-2,0-3.33-.13-5.19-.27-1.6-7.71-3.59-13.43-8.25-20.22,3.19.67,7.45,1.6,10.11,1.6,5.19,0,5.59-1.99,5.59-6.25V0l17.95.67Z"/><path class="cls-1" d="m62.11,218.65c-7.58,9.58-12.77,13.7-15.69,16.09-6.25-6.12-8.91-7.45-12.5-8.91,2.39-1.86,4.39-3.32,7.45-5.98-8.25,3.59-18.35,7.45-29.13,11.04,0,1.6-.53,3.46-2,3.46-1.33,0-1.86-1.73-2.13-3.06l-4.52-18.75c5.19-.53,6.52-.93,15.03-2.79v-30.19H4.92v-17.29h13.7v-27.66l19.68,1.06c1.6.13,2.79.27,2.79,1.46,0,.93-.8,1.6-2.79,2.53v22.61h11.84v17.29h-11.84v24.21c3.19-1.33,5.19-2.13,8.38-3.59h-.93v-13.43h80.6v13.43h-51.47l-2.53,4.26h53.07c0,13.43-.4,40.03-9.04,46.81-5.05,3.99-13.57,4.39-21.94,4.39-.27-3.06-.8-8.64-3.59-14.36-4.52,6.12-9.18,10.77-15.83,16.62-3.46-3.72-5.59-4.79-14.1-8.51,12.37-8.91,20.48-17.69,28.06-30.72h-5.98c-13.3,22.88-30.06,32.45-34.98,35.24-4.26-5.45-5.32-6.52-11.7-10.64,4.52-2.13,20.08-9.58,30.99-24.6h-5.19Zm-12.1-18.49c-.8,4.52-1.06,8.91-.93,11.84,2.93-3.59,5.05-6.65,8.11-11.84h-7.18Zm67.03-17.82h-62.11v-46.81h62.11v46.81Zm-17.95-28.46v-4.52h-26.2v4.52h26.2Zm-26.2,10.64v4.52h26.2v-4.52h-26.2Zm31.39,54.13c-2.93,5.72-5.19,10.64-10.51,18.49,1.6.13,3.06.27,4.66.27,2.66,0,5.05-.27,5.98-3.33.8-2.53,2.13-8.78,2.39-15.43h-2.53Z"/><path class="cls-1" d="m53.46,285.82c2.26.8,2.79,1.33,2.79,2,0,.4-.27,1.6-3.46,2.39-7.18,12.24-8.25,13.96-13.43,21.81l11.3-4.79c2.39,6.25,4.79,13.43,7.05,25.93-6.25,1.86-10.11,3.46-13.96,5.19-.13-.93-.4-2.66-.53-3.59-1.33.27-1.73.27-2.26.4v53.86h-17.95v-39.77c-.27.13-.53.27-1.46.53-2.13,18.62-4.65,25.93-6.12,30.19-4.26-2.26-7.71-3.59-13.83-4.12,3.59-7.98,6.25-23.41,6.78-31.79l14.5,2.39.13.13v-9.18c-1.2.13-7.18.8-12.5,1.06-.67,1.99-1.2,3.46-2.79,3.46s-2-1.33-2.13-2.39l-2.26-16.89c6.12.13,7.18.13,12.24-.13,2-2.79,3.32-5.05,6.12-9.84-1.2-1.2-8.38-7.71-18.22-13.96l9.31-15.96c1.73.93,2,1.2,3.46,2.13,4.26-7.45,6.52-12.1,8.91-19.55l15.96,6.12c.67.27,1.2.93,1.2,1.6,0,1.6-.93,1.73-4.12,2.26-3.86,7.85-4.79,9.44-9.97,18.35.53.4,3.06,2.39,3.59,2.79,3.99-7.18,4.79-8.91,7.45-15.83l14.23,5.19Zm-21.55,37.5c2-.13,3.72-.27,9.31-.67-.93-3.72-2.13-8.25-2.53-9.58l-6.78,10.24Zm57.19,46.55c0,.8,0,3.06,2.53,3.06,2.26,0,2.39-1.06,3.59-4.65.8-2.66,1.2-4.39,1.46-6.52,4.52,3.99,7.71,6.25,14.5,6.78-2.93-8.11-6.38-13.96-7.85-16.49l14.9-6.92c2.13,3.72,8.51,15.16,11.17,25.8-6.52,2.26-9.97,4.26-14.9,7.71-.67-2.26-1.33-4.12-2.79-8.51-4.39,16.36-6.38,19.02-20.35,19.02-12.37,0-19.95,0-19.95-12.5v-24.87l-.4.13c-2.66,15.43-7.05,24.74-9.97,30.46-4.52-3.72-8.11-5.45-13.96-6.92,1.73-2.53,3.32-5.19,5.59-10.51-3.46,1.2-5.32,1.86-7.18,2.79-2.13-11.7-3.06-17.02-3.86-25.8l13.03-3.32c.4,4.79,1.86,13.96,2,14.36.67-2.79.93-4.39,1.33-6.12l13.43,2.79v-7.18l15.03.93c-1.46-1.6-2.13-2.26-3.59-3.86l7.18-6.92c-3.72.4-19.82,1.86-23.01,2.26-.53,1.06-1.33,2.79-3.19,2.79-1.06,0-1.86-.8-2.26-2.79l-3.99-17.02c1.73-.13,9.31-.4,10.77-.53,7.18-13.7,10.11-23.01,12.1-31.79l18.62,6.38c.8.27,1.6.93,1.6,1.86,0,1.73-1.06,1.86-3.72,2.26-1.73,3.19-9.18,17.69-10.91,20.48,6.38-.27,9.58-.53,14.1-.8-2.13-3.59-3.72-5.85-5.45-8.25l13.3-6.92c7.31,8.25,12.63,16.89,19.15,29.66-6.78,3.32-9.58,5.05-15.69,9.31-1.46-4.26-2.26-5.98-3.32-8.51-1.73.13-9.18.8-10.64.93,4.39,4.79,6.78,7.45,9.18,11.3-7.98,7.31-8.91,8.11-11.7,11.3-1.33-2.13-2.66-3.99-5.85-7.85v23.14Zm-3.72-96.42c1.46.53,1.99.8,1.99,1.73,0,1.46-1.73,1.86-4.12,2.13-6.25,11.97-10.64,19.55-19.02,30.06-4.79-4.39-8.25-6.65-14.23-8.91,13.3-16.76,16.36-25.14,18.22-31.39l17.16,6.38Zm23.54-7.31c4.39,7.58,11.17,18.75,20.35,27.26-6.92,3.06-10.37,5.19-14.63,9.97-7.05-6.52-15.03-18.09-20.22-28.33l14.5-8.91Z"/><path class="cls-1" d="m75.94,429.46h34.58v11.44h-34.58v4.66h34.58v11.7h-34.58v4.65h44.82v12.77h-41.1c-.27,1.6-2.79,1.73-3.72,1.73v3.86h50.67v13.7h-32.98c15.29,10.24,30.99,13.7,34.31,14.36-3.86,3.59-6.38,6.92-10.51,14.5-12.1-3.99-29.66-12.1-41.49-23.14v22.48h-19.15v-22.48c-7.05,5.98-21.54,16.36-40.03,23.14-4.12-6.65-7.71-10.11-13.43-14.1,10.24-2.66,21.28-5.45,34.71-14.76H5.19v-13.7h51.6v-5.59H21.28v-36.44c-1.2,1.33-2.53,2.66-6.12,5.85-6.38-5.59-9.84-7.85-15.16-10.11,11.7-10.37,21.55-21.94,28.99-36.04l16.49,5.05c1.33.4,2.79.93,2.79,1.99,0,1.46-2.26,1.86-3.72,2-.67,1.33-.93,1.99-2.66,4.52h15.16c2.26-3.46,4.92-7.58,6.92-12.5l18.75,2.93c1.46.27,3.46.53,3.46,2.13,0,1.33-1.99,1.86-4.65,2.39-.67,1.33-2.53,4.12-3.32,5.05h40.83v13.3h-43.09v4.65Zm-19.15-4.65h-17.29v4.65h17.29v-4.65Zm0,16.09h-17.29v4.66h17.29v-4.66Zm0,16.36h-17.29v4.65h17.29v-4.65Z"/><path class="cls-1" d="m121.69,554.61v36.71h-49.87v4.79h53.86v48.01c0,9.04-2.93,9.44-16.23,9.84-.67-5.19-1.33-7.31-2.79-10.77v6.92h-9.44v-17.95h-4.79v17.95h-9.44v-17.95h-4.52v21.81h-12.5v-22.08c-.93,2.79-4.92,15.69-10.11,21.41-6.65-4.12-9.31-5.45-15.83-6.78,6.52-8.78,9.18-16.36,10.11-19.15-3.06,1.33-4.52,2-6.38,2.93-2.79-8.38-3.19-20.35-3.19-24.21l10.91-1.46c.53,4.92,1.06,7.85,1.73,11.17.67-3.72,1.46-10.11,1.6-16.36-4.52.93-9.44,3.19-11.44,4.12-.27-2-.27-2.39-.67-5.59-1.46.13-2.53.27-3.72.4v55.86h-17.29v-44.55c-.53.4-1.2.67-2.13.8-.13,11.3-.67,21.68-2.39,30.46-6.38-2.26-8.51-2.79-15.69-3.72,3.19-12.1,3.86-19.82,4.26-31.39l14.1,1.33c.53,0,1.2.27,1.86.53v-7.71c-2.13.27-10.77.93-12.24,1.06-.27,1.06-1.33,3.19-2.79,3.19-1.2,0-1.46-1.46-1.6-2.39l-1.73-16.09c3.59,0,4.79,0,7.71-.13,5.45-5.59,7.45-7.98,10.11-11.17-.8-.8-9.71-9.58-17.95-14.23l8.65-12.77c1.99,1.2,2.39,1.46,3.46,2.26,1.06-1.73,6.12-10.11,9.04-18.62l16.36,6.52c.4.13,1.99.8,1.99,1.86,0,1.86-1.86,1.73-4.26,1.6-2.93,6.25-9.44,15.83-11.3,18.09.93.8,1.46,1.33,3.32,3.19,7.18-10.11,7.98-11.3,9.97-15.43l13.7,6.78c.67.27,1.2.53,1.73.93h65.83Zm-67.03,3.33c-.93.13-1.73.13-2.79,0-4.92,7.18-13.57,17.56-21.68,26.86,1.73-.13,8.25-.53,9.84-.67-.4-1.6-.53-2.13-1.73-6.12l11.97-4.26c2,4.79,3.06,8.64,4.39,15.56v-31.39Zm71.02-23.27v14.76H50.94v-14.76h74.74Zm-53.86,34.45v7.31h32.32v-7.31h-32.32Zm11.17,41.49h-4.52v8.38h4.52v-8.38Zm14.23,0h-4.79v8.38h4.79v-8.38Zm9.44,8.38h4.92v-8.38h-4.92v8.38Zm0,19.82c.8,0,2.26.13,2.93.13,1.86,0,2-.53,2-4.12v-2.66h-4.92v6.65Z"/><path class="cls-1" d="m66.76,790.68h-8.78v-17.02h37.9v-10.24h-39.9c-.27,1.73-.67,4.39-.67,8.51,0,2.93.27,5.72.53,8.91-2.13,1.06-8.51,3.72-11.44,4.92v46.28h-19.02v-38.7c-3.99,1.6-8.11,3.33-12.77,5.19-.13,1.33-.27,4.52-2.26,4.52-1.33,0-1.86-1.6-2.13-2.66l-4.65-19.55c7.05-1.46,14.9-4.26,21.81-6.92v-24.07h-4.12c-.93,7.71-2,11.7-2.66,14.63-3.99-1.33-9.44-2.79-16.89-2.39,4.79-14.36,5.59-32.72,5.59-41.63l15.83,2.39c.67.13,1.46.53,1.46,1.33,0,1.2-.93,1.73-2.93,2.93,0,1.99-.27,4.26-.4,5.59h4.12v-22.48l19.02.8c1.06,0,2.26.4,2.26,1.46,0,1.33-1.46,2.13-2.26,2.66v17.56h11.3v14.63h24.21v-8.11h-20.61v-15.56h20.61v-13.96l19.02.66c.8,0,2.79.13,2.79,1.73,0,1.2-1.6,2-2.79,2.53v9.04h23.81v15.56h-23.81v8.11h27.93v16.09h-10.51c.27.4.4.67.4,1.06,0,1.2-.53,1.46-2.66,2.39v6.78h11.04v17.02h-11.04v27c0,9.58-3.72,15.83-26.73,14.76-.4-6.52-1.99-13.43-5.45-19.68,3.99.53,5.85.93,9.31.93,4.39,0,4.65-1.33,4.65-6.12v-16.89h-25.8c6.12,6.78,9.97,12.9,12.77,17.42-7.31,4.65-10.77,7.71-14.1,11.17-3.99-6.92-7.98-12.5-14.1-19.95l12.1-8.64Zm-11.7-40.83h-10.64v16.62c2.26-1.06,5.98-2.93,10.64-5.45v-11.17Z"/><path class="cls-1" d="m44.82,925.94h18.22v15.69h-18.22v23.54h-17.82v-23.54H8.64v-15.69h18.35v-6.38H6.78v-15.69h7.71c-1.33-5.05-2.93-8.25-3.72-9.84l10.37-2.93H4.12v-15.56h22.88v-6.25H10.64v-14.9h16.36v-11.04l18.75.93c.93,0,1.86.53,1.86,1.46,0,1.2-1.33,2.13-2.79,3.06v5.59h17.16v14.9h-17.16v6.25h20.35v15.56h-15.29l8.91,1.86c1.2.27,2.39.53,2.39,1.86s-1.06,1.86-3.46,2c-1.2,3.19-2.39,5.98-2.93,7.05h9.44v15.69h-19.42v6.38Zm-16.62-34.84c1.46,2.93,3.32,7.58,4.52,11.3l-4.65,1.46h9.97c1.86-4.39,3.33-8.38,4.26-12.77h-14.1Zm58.78,74.08h-18.62v-119.3h54.53c0,21.28,0,29.66-.8,33.91-1.6,8.78-9.71,11.3-24.07,11.44-1.73-10.37-4.65-15.03-7.05-18.35,2.26.53,3.99.93,8.38.93s5.05-.93,5.05-5.98v-5.19h-17.42v31.52h31.25l8.91,9.31c-3.99,15.03-7.98,26.07-12.9,35.64.93,1.2,6.52,8.25,15.69,14.76-9.58,6.12-13.03,10.11-14.76,11.97-2.13-2-5.32-4.92-10.64-10.91-4.65,6.52-6.52,8.25-7.98,9.58-1.86-1.86-4.65-4.65-9.58-7.71v8.38Zm11.44-53.86c1.2,5.19,2.39,8.11,4.12,12.1,2.53-6.12,3.19-9.31,3.99-12.77h-19.55v7.85l11.44-7.18Zm-11.44,38.3c2.79-3.32,4.39-5.72,6.65-9.18-1.6-2.53-4.52-8.25-6.65-14.63v23.81Z"/></g></svg>