<?xml version="1.0" encoding="UTF-8"?><svg id="_レイヤー_2" xmlns="http://www.w3.org/2000/svg" xmlns:xlink="http://www.w3.org/1999/xlink" viewBox="0 0 777.57715 122"><defs><style>.cls-1{clip-path:url(#clippath);}.cls-2{fill:none;}.cls-2,.cls-3{stroke-width:0px;}.cls-3{fill:#ff2290;}</style><clipPath id="clippath"><rect class="cls-2" x="5.16699" width="768" height="122"/></clipPath></defs><g id="modal"><g class="cls-1"><path class="cls-3" d="m534.03418,14.90039c.64941.39062,1.04004,1.04004,1.04004,1.69043,0,1.04004-.91016,1.2998-1.56055,1.55957-1.04004.39062-1.69043.39062-2.33984.65039-7.80078,18.7207-26.91113,40.43164-35.49121,46.15137-5.33008-6.88965-10.14062-10.27051-15.99121-13.25977,13.52051-10.01074,26.3916-21.71094,36.01172-45.8916l18.33105,9.09961Zm28.86035,42.12207c17.4209,20.93066,26.91113,37.05078,33.93164,49.66113-8.06055,2.86035-12.87012,5.85059-18.2002,10.66113-2.21094-4.94043-3.51074-7.80078-5.59082-11.44043-28.86133,4.16016-59.02246,6.5-72.41309,7.41016,0,.91016-.38965,3.50977-2.33984,3.50977-1.16992,0-1.82031-.91016-2.20996-2.85938l-4.41992-18.98145c6.37012-.12988,9.36035-.25977,14.04004-.38965,11.18066-22.75098,20.15137-46.80176,24.05078-59.93262l20.02148,6.76074c.64941.25977,1.82031.64941,1.82031,1.9502,0,1.9502-2.60059,1.9502-3.90039,2.08008-2.60059,6.5-11.18066,28.34082-21.45117,47.97168,3.25-.25977,23.66113-1.82031,37.31152-3.51074-7.41016-11.0498-11.57031-16.37988-16.12012-22.10059l15.46973-10.79004Zm9.88086-55.64258c3.63965,23.27148,14.69043,34.97168,33.93066,48.3623-6.5,4.03027-9.75,7.54004-13.38965,13.91016-6.89062-4.16016-26.3916-18.07031-36.79199-45.50195h-19.24023V1.37988h35.49121Z"/><path class="cls-3" d="m695.10449,85.88281v27.95117h-16.50977v-27.95117h-9.62109c-1.94922,10.40039-8.96973,23.79102-19.89062,30.68164-2.46973-2.46973-7.28027-7.15039-14.56055-9.62012v9.36035h-18.59082V.59961h54.47266v45.24219h-35.88184v60.97266c9.10059-5.07031,15.34082-10.01074,17.94141-20.93164h-13.39062v-14.42969h15.08008c0-2.34082.12988-5.2002.12988-7.6709h-11.95996v-13.65039h63.05176v13.65039h-10.27051v7.6709h13.00098v14.42969h-13.00098Zm-42.12109-72.41211h-18.46094v4.81055h18.46094v-4.81055Zm0,14.69043h-18.46094v4.94043h18.46094v-4.94043Zm25.61133,35.62109h-8.06055c-.12988,1.56055-.12988,6.50098-.25977,7.6709h8.32031v-7.6709Zm27.82031,53.04199c-1.16992-9.87988-5.33008-16.38086-6.88965-18.98047,4.29004.78027,5.45996,1.04004,7.54004,1.04004,2.46973,0,5.2002,0,5.2002-4.5498v-48.49219h-36.1416V.59961h54.73242v101.14453c0,12.08984-7.41016,15.20996-24.44141,15.08008Zm5.85059-103.35352h-18.7207v4.81055h18.7207v-4.81055Zm0,14.69043h-18.7207v4.94043h18.7207v-4.94043Z"/><path class="cls-3" d="m777.57715,3.79102v33.32031l-5.14844,42.04395h-13.72852l-5.29102-42.04395V3.79102h24.16797Zm-24.02539,88.52051h24.02539v24.16797h-24.02539v-24.16797Z"/><path class="cls-3" d="m189.93945,112.14453h-69.89062c1.35254-22.75098,11.54395-32.11133,33.59277-50.83203,16.74512-14.30078,16.74512-17.29102,16.74512-22.75098,0-9.75-8.32031-12.21973-13.72852-12.21973-14.04004,0-15.49707,12.48047-15.91309,20.93066h-19.24023c.3125-8.19043.62402-17.16113,6.44824-25.87109,6.96777-10.53027,17.05664-14.56055,28.80957-14.56055,23.81641,0,32.44922,16.37988,32.44922,31.33105,0,8.4502-2.70508,14.43066-4.57617,17.81055-5.30469,9.23047-26.31348,26.00098-27.35352,26.91113-6.75977,5.45996-7.80078,6.75977-10.6084,10.01074h43.26562v19.24023Z"/><path class="cls-3" d="m232.36816,9.70117h18.61719v61.62207h12.68848v19.63086h-12.68848v21.19043h-18.82422v-21.19043h-38.89844v-19.76074l39.10547-61.49219Zm-.20703,61.62207v-36.01172l-22.88086,36.01172h22.88086Z"/><path class="cls-3" d="m345.02734,47.14258h25.2207v16.77051h-25.2207v15.60059h41.86133v17.03027h-41.86133v25.35059h-20.15039v-25.35059h-56.94238v-17.03027h19.89062v-32.37109h37.05176v-14.04102h-27.30176c-.51953.91016-8.18945,13.39062-16.64062,21.45117-9.87988-7.54102-14.2998-8.9707-17.29004-9.88086,14.1709-12.87012,23.40039-29.25098,28.34082-43.03125l19.11133,6.24023c.7793.25977,1.55957.64941,1.55957,1.42969,0,1.69043-1.82031,1.82031-3.90039,1.9502-.64941,1.69043-1.2998,3.12012-1.81934,4.41992h74.62207v17.4209h-36.53125v14.04102Zm-20.15039,16.77051h-16.64062v15.60059h16.64062v-15.60059Z"/><path class="cls-3" d="m30.15137,8.98535c.48535-.66016,2.91602-4.25977,4.64355-8.45996l8.10059,2.28027c.37793.12012.75586.2998.75586.71973,0,.66016-.75586.95996-1.56641.83984-1.40332,2.45996-1.94336,3.48047-2.69922,4.62012h12.36621v7.5H2.50293v-7.5h11.87988c-1.4043-2.81934-2.21387-3.95996-3.07812-5.09961L18.59473.22559c1.89062,2.58008,3.02441,4.62012,4.37402,7.5l-2.91602,1.25977h10.09863ZM12.81641,42.82422v12.95898h-7.55957V18.46484h21.49219v31.43945c0,4.91895-2.32227,5.63965-9.4502,5.87891-.21582-3.23926-1.08008-5.51953-2.75391-8.51953.80957.06055,2.42969.2998,3.24023.2998,1.02539,0,1.62012-.11914,1.62012-1.91992v-2.81934h-6.58887Zm6.58887-15.23926v-2.63965h-6.58887v2.63965h6.58887Zm0,8.93945v-2.7002h-6.58887v2.7002h6.58887Zm18.41406-17.09961c.48633,0,.80957.18066.80957.60059,0,.2998-.32324.65918-.80957,1.01953v23.87891h-7.77637v-25.8584l7.77637.35938Zm11.39453-1.25977c.48535,0,.97168.12012.97168.66016,0,.41992-.59375.78027-1.2959,1.2002v28.61816c0,2.21973,0,4.13965-2.32227,5.82031-1.94434,1.43945-4.26562,1.37988-8.74805,1.31934,0-2.2793-.43164-5.75977-1.78223-8.99902.91797.12012,2.91602.41992,3.72656.41992,1.34961,0,1.34961-.95996,1.34961-1.67969v-27.7793l8.10059.41992Z"/><path class="cls-3" d="m103.75391,10.72559v16.55957h-20.25098v2.15918h21.87012v21.65918c0,4.08008-1.1875,4.25977-6.58789,4.44043-.26953-2.33984-.54004-3.2998-1.13379-4.86035v3.12012h-3.83398v-8.09961h-1.94434v8.09961h-3.83398v-8.09961h-1.83594v9.83984h-5.07617v-9.95996c-.37793,1.25977-1.99805,7.08008-4.10352,9.65918-2.7002-1.85938-3.78027-2.45996-6.42676-3.05957,2.64648-3.95996,3.72656-7.37988,4.10449-8.63965-1.24219.60059-1.83594.90039-2.5918,1.32031-1.13477-3.78027-1.29688-9.17969-1.29688-10.91992l4.42871-.66016c.21582,2.21973.43164,3.54004.70215,5.04004.26953-1.67969.59375-4.55957.64746-7.37988-1.83594.41992-3.83398,1.44043-4.64355,1.86035-.1084-.90039-.1084-1.08008-.27051-2.52051-.59375.06055-1.02539.12012-1.51172.18066v25.19922h-7.02051v-20.09961c-.21582.17969-.48535.2998-.86328.36035-.05469,5.09961-.27051,9.7793-.97266,13.73926-2.5918-1.02051-3.45605-1.25977-6.37207-1.67969,1.2959-5.45996,1.56641-8.94043,1.72852-14.16016l5.72363.60059c.21582,0,.48633.12012.75586.23926v-3.47949c-.86328.12012-4.37402.41992-4.96777.47949-.1084.48047-.54004,1.44043-1.13379,1.44043-.48633,0-.59473-.66016-.64844-1.08008l-.70215-7.25977c1.45801,0,1.94434,0,3.13281-.05957,2.21387-2.52051,3.02344-3.59961,4.10352-5.04004-.32422-.36035-3.94238-4.31934-7.29004-6.41992l3.50977-5.75977c.81055.54004.97266.66016,1.4043,1.02051.43164-.78027,2.48438-4.56055,3.67188-8.40039l6.64258,2.94043c.16211.05957.80957.35938.80957.83984,0,.83984-.75586.78027-1.72754.71973-1.18848,2.82031-3.83398,7.13965-4.59082,8.16016.37891.35938.59473.59961,1.35059,1.43945,2.91602-4.55957,3.24023-5.09961,4.0498-6.95996l5.5625,3.06055c.26953.12012.48535.23926.70215.41992h26.73047Zm-27.2168,1.5c-.37793.05957-.70215.05957-1.13379,0-1.99805,3.23926-5.50879,7.91895-8.80273,12.11914.70215-.05957,3.34863-.24023,3.99609-.2998-.16211-.71973-.21582-.95996-.70215-2.75977l4.86035-1.91992c.81055,2.16016,1.24219,3.89941,1.78223,7.01953v-14.15918ZM105.37305,1.72559v6.66016h-30.34766V1.72559h30.34766Zm-21.87012,15.54004v3.2998h13.12207v-3.2998h-13.12207Zm4.53613,18.71875h-1.83594v3.78027h1.83594v-3.78027Zm5.77832,0h-1.94434v3.78027h1.94434v-3.78027Zm3.83398,3.78027h1.99805v-3.78027h-1.99805v3.78027Zm0,8.93945c.32422,0,.91797.05957,1.18848.05957.75586,0,.80957-.24023.80957-1.85938v-1.2002h-1.99805v3Z"/><path class="cls-3" d="m447.5166,21.70508v6.7793h-7.66797c2.53809,2.33984,5.29199,4.32031,8.80273,6.06055-2.91602,2.87891-3.78027,3.7793-5.61621,6.95898-1.6748-1.13965-3.34863-2.33984-5.61621-4.37988v18.65918h-7.99219v-1.5h-12.47461v1.5h-8.0459v-17.45898c-2.5918,2.33984-4.42773,3.54004-5.99414,4.55957-.70215-1.08008-2.75391-4.19922-5.77832-6.59961,1.78223-.89941,6.26465-3.23926,10.20605-7.7998h-8.58594v-6.7793h13.23047c.48633-.90039.70215-1.44043.97168-2.04004h-8.0459v-6.47949h10.36816c.16211-.41992.37793-1.32031.48633-1.86035h-14.9043v-7.01953h16.2002c.16211-1.55957.26953-2.75977.32422-4.01953l8.80176.71973c.27051,0,1.08008.05957,1.08008.78027,0,.65918-.80957.89941-1.34961,1.01953-.05469.54004-.16211,1.13965-.2168,1.5h19.98047v7.01953h-21.49219c-.1084.41992-.32422,1.32031-.48633,1.86035h18.19824v6.47949h-8.91016c.48633,1.01953.81055,1.5,1.13477,2.04004h13.3916Zm-16.14551,9.35938c-.97266-1.13965-1.45801-1.74023-2.05273-2.58008h-12.0957c-.27051.48047-.54004.90039-1.72852,2.58008h15.87695Zm-1.94434,9.2998v-2.51953h-12.47461v2.51953h12.47461Zm-12.47461,5.51953v2.58008h12.47461v-2.58008h-12.47461Zm8.91016-24.05859c-.26953-.60059-.48535-1.14062-.86328-2.33984h-3.83496c-.21582.65918-.43164,1.19922-.91797,2.33984h5.61621Z"/><path class="cls-3" d="m18.19824,84.49121c.64844-.05957,8.47852-.54004,8.96387-.59961.2168-.17969.37793-.36035.48633-.48047-2.75391-3.41992-4.96777-5.5791-9.4502-8.75879l4.69824-5.45996c1.02637.71973,1.45801,1.01953,2.48438,1.85938.32324-.47949,2.42969-3.12012,4.91406-7.85938l6.6416,3.41992c.16211.12012.54004.2998.54004.71973,0,.48047-.59375.78027-1.56641.71973-1.13379,1.62012-2.96973,4.37988-5.39941,7.55957.80957.90039,1.34961,1.5,1.88965,2.16016,1.35059-1.67969,6.15625-7.91992,8.58594-12.05957l7.12891,3.95996c.26953.12012.43164.36035.43164.66016,0,.66016-.54004.66016-1.67383.66016-4.32031,5.58008-6.20996,7.73926-10.15234,12.23926,2.53809-.17969,2.80762-.17969,4.96777-.2998-.86426-1.74023-.97168-1.98047-1.56543-2.94043l6.04785-3.47949c2.10547,3.05957,5.02148,8.39941,6.6416,12.95996-.80957.47949-3.02344,1.67969-3.67188,2.09961-.43164.24023-2.32227,1.5-2.7002,1.74023-.37793-1.08008-.54004-1.44043-1.72754-4.2002-1.72852.17969-9.7207,1.01953-10.85449,1.2002l1.2959.35938c.32422.06055.64844.36035.64844.78027,0,.78027-.75586.83984-1.83594.95996-.16211.2998-.59473.95996-.75586,1.25977h12.2041l3.40137,4.02051c-1.56543,2.33984-3.83398,5.5791-9.07129,10.61914,4.0498,2.39941,7.72168,3.35938,12.31152,4.01953-2.96973,3.24023-3.29395,3.59961-4.91406,7.08008-7.01953-1.91992-11.55566-4.7998-13.44629-6.05957-4.0498,2.87988-8.1543,4.85938-12.63574,6.17969-1.13379-3.24023-2.10645-4.67969-4.48242-7.2002,1.99805-.47949,6.31836-1.37988,11.39453-4.13965-1.08008-1.25977-1.35059-1.62012-2.5918-3.35938-2.16016,2.5791-2.7002,3.17969-4.32031,4.73926-1.89062-2.04004-3.07812-3.12012-5.5625-4.31934v14.03906H7.39844v-21.23926c-.27051.36035-1.24219,1.37988-1.56641,1.74023-1.4043-2.28027-3.34766-4.74023-5.83203-6.41992,5.3457-4.25977,9.82812-9.71973,13.55469-16.73926l7.18164,3.47949c.16211.06055.54004.30078.54004.78027,0,.71973-.64844.83984-1.51172.95996-.64844.90039-3.40234,5.16016-3.99609,6,.54004.24023.80957.54004.80957.7793,0,.30078-.26953.7207-1.08008,1.14062v14.03906c2.8623-2.39941,6.91211-6.41992,10.26074-12.53906-.54004.05957-4.48242.54004-4.69824.54004-.32422.65918-.59375,1.0791-.91797,1.0791-.43262,0-.54004-.71973-.59473-1.0791l-1.34961-7.32031Zm.43164-16.55957c.48633.30078.75684.48047.75684.84082,0,.65918-.86426.65918-1.4043.65918-4.58984,6.24023-8.10059,10.37988-11.28613,13.2002-2.91602-4.08008-5.07617-5.04004-6.15625-5.52051,3.61816-3.17969,7.50586-7.01953,11.33984-13.13867l6.75,3.95898Zm11.98828,32.15918c1.08008,1.55957,1.94434,2.58008,3.40234,3.95996,1.88965-1.67969,2.75391-2.75977,3.72656-3.95996h-7.12891Z"/><path class="cls-3" d="m103.57324,73.87207v16.55957h-20.25098v2.15918h21.87012v21.65918c0,4.08008-1.1875,4.25977-6.58789,4.44043-.26953-2.33984-.54004-3.2998-1.13379-4.86035v3.12012h-3.83398v-8.09961h-1.94434v8.09961h-3.83398v-8.09961h-1.83594v9.83984h-5.07617v-9.95996c-.37793,1.25977-1.99805,7.08008-4.10352,9.65918-2.7002-1.85938-3.78027-2.45996-6.42676-3.05957,2.64648-3.95996,3.72656-7.37988,4.10449-8.63965-1.24219.60059-1.83594.90039-2.5918,1.32031-1.13477-3.78027-1.29688-9.17969-1.29688-10.91992l4.42871-.66016c.21582,2.21973.43164,3.54004.70215,5.04004.26953-1.67969.59375-4.55957.64746-7.37988-1.83594.41992-3.83398,1.44043-4.64355,1.86035-.1084-.90039-.1084-1.08008-.27051-2.52051-.59375.06055-1.02539.12012-1.51172.18066v25.19922h-7.02051v-20.09961c-.21582.17969-.48535.2998-.86328.36035-.05469,5.09961-.27051,9.7793-.97266,13.73926-2.5918-1.02051-3.45605-1.25977-6.37207-1.67969,1.2959-5.45996,1.56641-8.94043,1.72852-14.16016l5.72363.60059c.21582,0,.48633.12012.75586.23926v-3.47949c-.86328.12012-4.37402.41992-4.96777.47949-.1084.48047-.54004,1.44043-1.13379,1.44043-.48633,0-.59473-.66016-.64844-1.08008l-.70215-7.25977c1.45801,0,1.94434,0,3.13281-.05957,2.21387-2.52051,3.02344-3.59961,4.10352-5.04004-.32422-.36035-3.94238-4.31934-7.29004-6.41992l3.50977-5.75977c.81055.54004.97266.66016,1.4043,1.02051.43164-.78027,2.48438-4.56055,3.67188-8.40039l6.64258,2.94043c.16211.05957.80957.35938.80957.83984,0,.83984-.75586.78027-1.72754.71973-1.18848,2.82031-3.83398,7.13965-4.59082,8.16016.37891.35938.59473.59961,1.35059,1.43945,2.91602-4.55957,3.24023-5.09961,4.0498-6.95996l5.5625,3.06055c.26953.12012.48535.23926.70215.41992h26.73047Zm-27.2168,1.5c-.37793.05957-.70215.05957-1.13379,0-1.99805,3.23926-5.50879,7.91895-8.80273,12.11914.70215-.05957,3.34863-.24023,3.99609-.2998-.16211-.71973-.21582-.95996-.70215-2.75977l4.86035-1.91992c.81055,2.16016,1.24219,3.89941,1.78223,7.01953v-14.15918Zm28.83594-10.5v6.66016h-30.34766v-6.66016h30.34766Zm-21.87012,15.54004v3.2998h13.12207v-3.2998h-13.12207Zm4.53613,18.71875h-1.83594v3.78027h1.83594v-3.78027Zm5.77832,0h-1.94434v3.78027h1.94434v-3.78027Zm3.83398,3.78027h1.99805v-3.78027h-1.99805v3.78027Zm0,8.93945c.32422,0,.91797.05957,1.18848.05957.75586,0,.80957-.24023.80957-1.85938v-1.2002h-1.99805v3Z"/><path class="cls-3" d="m404.67578,95.95117v-22.55957h10.96191c.16211-.35938.37793-.89941.75586-1.91992h-17.87402v-6.41895h48.97852v6.41895h-22.08594c-.1084.48047-.48633,1.37988-.70215,1.91992h16.25391v22.55957h-21.00586c-.75586,1.08008-1.24219,1.67969-1.62012,2.16016h18.08984l3.18652,3.23926c-2.32227,2.94043-5.29199,5.45996-8.80273,7.7998,1.78223.48047,7.66895,1.98047,16.84863,1.91992-2.91602,4.62012-3.07812,6.66016-3.24023,8.21973-3.72559-.41992-12.85156-1.5-21.81641-5.33984-7.34375,3.54004-13.55371,4.97949-20.57422,5.45996-.75586-4.08008-2.86133-6.83984-3.67188-7.91992,8.91016.12012,13.44629-1.01953,16.52441-1.97949-.86426-.60059-2.10645-1.62012-4.32031-3.83984-3.78027,3.17969-5.93945,4.19922-7.61426,5.03906-1.24219-2.99902-2.7002-4.67969-4.85938-6.71973,1.83594-.65918,7.12793-2.5791,11.93359-8.03906h-5.3457Zm28.56641-15.83984v-1.91992h-20.57422v1.91992h20.57422Zm-20.57422,3.60059v1.91992h20.57422v-1.91992h-20.57422Zm0,5.51953v1.91992h20.57422v-1.91992h-20.57422Zm6.04785,14.09961c1.24219.95996,2.64648,1.91992,4.75195,2.99902,2.5918-1.37988,3.56445-2.2793,4.2666-2.99902h-9.01855Z"/></g></g></svg>