<?xml version="1.0" encoding="UTF-8"?><svg id="_レイヤー_2" xmlns="http://www.w3.org/2000/svg" viewBox="0 0 150.04346 962.62402"><defs><style>.cls-1{fill:#ff2290;stroke-width:0px;}</style></defs><g id="modal"><path class="cls-1" d="m57.0918,602.19727c.66504.39893,1.06396,1.06396,1.06396,1.729,0,1.06396-.93115,1.32959-1.59619,1.5957-1.06396.39893-1.72852.39893-2.39355.66504-7.97998,19.15137-27.53027,41.36182-36.30811,47.21338-5.45264-7.04883-10.37354-10.50684-16.3584-13.56543,13.83154-10.24072,26.99805-22.21045,36.83984-46.94727l18.75244,9.30957Zm29.5249,43.09033c17.82129,21.4126,27.53027,37.90381,34.71191,50.8042-8.24561,2.92627-13.1665,5.98486-18.61963,10.90576-2.26074-5.05371-3.59082-7.97949-5.71875-11.70361-29.5249,4.25586-60.37988,6.6499-74.07812,7.58105,0,.93066-.39941,3.59082-2.39404,3.59082-1.19727,0-1.86182-.93115-2.26123-2.92578l-4.52148-19.41748c6.5166-.1333,9.57568-.26611,14.36328-.39893,11.4375-23.27441,20.61426-47.87842,24.60449-61.31104l20.48096,6.91553c.66504.26611,1.86182.66504,1.86182,1.99512,0,1.99512-2.65967,1.99512-3.98975,2.12793-2.65967,6.6499-11.4375,28.99316-21.94434,49.0752,3.3252-.26562,24.20557-1.86182,38.16992-3.59082-7.58057-11.30469-11.83643-16.75732-16.4917-22.60938l15.82666-11.03857Zm10.10791-56.92188c3.72363,23.80615,15.02832,35.77588,34.71191,49.47412-6.6499,4.12305-9.9751,7.71387-13.69873,14.23047-7.04883-4.25586-26.99805-18.48633-37.6377-46.54834h-19.68359v-17.15625h36.30811Z"/><path class="cls-1" d="m88.87793,807.8125v28.59424h-16.89062v-28.59424h-9.8418c-1.99512,10.63965-9.17676,24.33838-20.34814,31.38721-2.52686-2.52686-7.44775-7.31494-14.89551-9.8418v9.57568H7.8833v-118.36621h55.7251v46.28271H26.90186v62.375c9.30957-5.18701,15.69336-10.24072,18.35303-21.4126h-13.69824v-14.76221h15.42725c0-2.39404.1333-5.31982.1333-7.84668h-12.23584v-13.96484h64.50293v13.96484h-10.50635v7.84668h13.29932v14.76221h-13.29932Zm-43.09082-74.07812h-18.88525v4.9209h18.88525v-4.9209Zm0,15.02832h-18.88525v5.05371h18.88525v-5.05371Zm26.2002,36.44092h-8.24561c-.1333,1.5957-.1333,6.6499-.26611,7.84668h8.51172v-7.84668Zm28.46094,54.26221c-1.19678-10.10791-5.45264-16.75781-7.04883-19.41748,4.38916.79785,5.58594,1.06396,7.71387,1.06396,2.52686,0,5.31982,0,5.31982-4.65479v-49.60742h-36.97266v-46.28271h55.99121v103.4707c0,12.36865-7.58105,15.56055-25.00342,15.42773Zm5.98486-105.73145h-19.15137v4.9209h19.15137v-4.9209Zm0,15.02832h-19.15137v5.05371h19.15137v-5.05371Z"/><path class="cls-1" d="m77.70605,857.82324v30.98828l-4.78809,39.10059h-12.76758l-4.92041-39.10059v-30.98828h22.47607Zm-22.34326,82.32471h22.34326v22.47607h-22.34326v-22.47607Z"/><path class="cls-1" d="m71.50049,304.62598H0c1.38281-23.27441,11.81006-32.8501,34.3667-52.00146,17.13037-14.62939,17.13037-17.68799,17.13037-23.27393,0-9.97461-8.51172-12.50195-14.04443-12.50195-14.36426,0-15.85352,12.76758-16.2793,21.4126H1.48926c.31934-8.37891.63867-17.55566,6.59717-26.46631,7.12842-10.77246,17.44922-14.89551,29.47266-14.89551,24.36523,0,33.19629,16.75781,33.19629,32.05225,0,8.64453-2.76611,14.76221-4.68164,18.22021-5.42627,9.44287-26.91895,26.59912-27.98291,27.53027-6.91602,5.58545-7.97998,6.91553-10.85254,10.24023h44.26221v19.68359Z"/><path class="cls-1" d="m113.58057,199.8252h19.04541v63.04004h12.98096v20.08252h-12.98096v21.67822h-19.2583v-21.67822h-39.79346v-20.21533l40.00635-62.90723Zm-.21289,63.04004v-36.83984l-23.40771,36.83984h23.40771Z"/><path class="cls-1" d="m90.22266,364.47656h25.80127v17.15625h-25.80127v15.95947h42.82471v17.42236h-42.82471v25.93408h-20.61426v-25.93408H11.35645v-17.42236h20.34814v-33.11572h37.90381v-14.36377h-27.92871c-.53223.93115-8.37891,13.69873-17.02344,21.94434-10.10791-7.71387-14.62988-9.17676-17.68848-10.10791,14.49609-13.1665,23.93896-29.92383,28.99268-44.02148l19.55029,6.38379c.79834.26611,1.59619.66504,1.59619,1.46289,0,1.729-1.86182,1.8623-3.98975,1.99512-.66504,1.729-1.33008,3.19189-1.8623,4.52197h76.33984v17.82129h-37.37207v14.36377Zm-20.61426,17.15625h-17.02344v15.95947h17.02344v-15.95947Z"/><path class="cls-1" d="m117.64307,12.60498c.69922-.94971,4.1958-6.12988,6.68213-12.17334l11.65479,3.28076c.54395.17285,1.08789.43164,1.08789,1.03613,0,.94971-1.08789,1.38135-2.25342,1.2085-2.02002,3.54004-2.79736,5.00781-3.88477,6.64795h17.79248v10.7915h-70.86035v-10.7915h17.09375c-2.02002-4.05811-3.18555-5.69824-4.42871-7.33838l10.48926-5.2666c2.71924,3.7124,4.35107,6.64795,6.29346,10.79199l-4.1958,1.81299h14.5293Zm-24.94092,48.69238v18.64795h-10.87744V26.24561h30.92383v45.23926c0,7.07959-3.34131,8.11572-13.59717,8.46045-.31104-4.66162-1.5542-7.94238-3.96289-12.25928,1.16553.08643,3.49658.43213,4.66211.43213,1.47607,0,2.33057-.17285,2.33057-2.7627v-4.05811h-9.479Zm9.479-21.92871v-3.79883h-9.479v3.79883h9.479Zm0,12.86377v-3.88525h-9.479v3.88525h9.479Zm26.49512-24.60547c.69922,0,1.16553.25879,1.16553.86328,0,.43164-.46631.9502-1.16553,1.46777v34.36133h-11.18848V27.10938l11.18848.51758Zm16.39453-1.81299c.69922,0,1.39844.17285,1.39844.94971,0,.60449-.85498,1.12207-1.86475,1.72656v41.18164c0,3.19434,0,5.95703-3.34131,8.37451-2.79688,2.07178-6.1377,1.98584-12.58691,1.89893,0-3.28027-.62158-8.28809-2.56396-12.94971,1.3208.17236,4.1958.604,5.36133.604,1.94238,0,1.94238-1.38086,1.94238-2.41699V25.20996l11.65479.604Z"/><path class="cls-1" d="m145.84766,101.43945v23.82812h-29.13672v3.1084h31.46729v31.1665c0,5.87061-1.70898,6.12988-9.479,6.38916-.38818-3.36719-.77686-4.74902-1.63135-6.99316v4.48926h-5.5166v-11.65527h-2.79736v11.65527h-5.5166v-11.65527h-2.6416v14.15918h-7.30371v-14.33203c-.54346,1.81348-2.87451,10.1875-5.90479,13.90039-3.88477-2.67676-5.43896-3.54004-9.24609-4.40332,3.80713-5.69824,5.36133-10.61914,5.90527-12.43213-1.78711.86328-2.64209,1.29492-3.72949,1.89941-1.63184-5.43896-1.86523-13.20947-1.86523-15.71289l6.37158-.94971c.31055,3.19434.62158,5.09375,1.00977,7.25195.38867-2.41699.85498-6.56152.93262-10.61914-2.6416.60449-5.5166,2.07227-6.68213,2.67676-.15527-1.29541-.15527-1.5542-.38867-3.62598-.85449.08594-1.47607.17236-2.17529.25879v36.26025h-10.10059v-28.92188c-.31104.25879-.69922.43164-1.24316.51807-.07764,7.33838-.38867,14.07227-1.39893,19.77051-3.72949-1.46777-4.97266-1.81348-9.16797-2.41748,1.86475-7.85645,2.25293-12.86377,2.48633-20.375l8.23584.86377c.31104,0,.69922.17236,1.08789.34473v-5.00684c-1.24316.17236-6.29346.604-7.14844.69043-.15527.69043-.77686,2.07227-1.63135,2.07227-.69922,0-.85498-.9502-.93262-1.5542l-1.00977-10.44678c2.09766,0,2.79688,0,4.50635-.08594,3.18555-3.62598,4.35107-5.18018,5.90479-7.25195-.46582-.51855-5.67188-6.21631-10.48926-9.23828l5.05078-8.28809c1.16504.77734,1.39844.9502,2.02002,1.46777.62158-1.12207,3.57373-6.56152,5.2832-12.08691l9.55713,4.23047c.23291.08643,1.16504.51855,1.16504,1.20898,0,1.2085-1.0874,1.12207-2.48633,1.03613-1.70898,4.05762-5.51611,10.27344-6.604,11.74121.54395.51807.85449.86328,1.94238,2.07227,4.1958-6.56152,4.66162-7.33887,5.82715-10.01465l8.00293,4.40283c.38867.17236.69922.34521,1.01025.604h38.46045Zm-39.15967,2.15869c-.54395.08643-1.01025.08643-1.63184,0-2.875,4.66162-7.92529,11.396-12.66455,17.43945,1.00977-.08643,4.81689-.34521,5.74951-.43164-.23291-1.03613-.31055-1.38135-1.01025-3.97119l6.99316-2.7627c1.16553,3.10742,1.78662,5.61133,2.56396,10.10059v-20.37451Zm41.49023-15.10889v9.5835h-43.66602v-9.5835h43.66602Zm-31.46729,22.36084v4.74854h18.88037v-4.74854h-18.88037Zm6.52637,26.93604h-2.6416v5.43945h2.6416v-5.43945Zm8.31396,0h-2.79736v5.43945h2.79736v-5.43945Zm5.5166,5.43945h2.87451v-5.43945h-2.87451v5.43945Zm0,12.86377c.46582,0,1.3208.08643,1.70898.08643,1.08789,0,1.16553-.3457,1.16553-2.67676v-1.72656h-2.87451v4.31689Z"/><path class="cls-1" d="m148.41162,491.31641v9.75586h-11.0332c3.65186,3.36719,7.61426,6.21631,12.66504,8.71973-4.1958,4.14453-5.43896,5.43945-8.08105,10.01514-2.4082-1.64014-4.81689-3.36719-8.08008-6.30225v26.84961h-11.49951v-2.1582h-17.94824v2.1582h-11.57666v-25.12305c-3.72949,3.36719-6.37158,5.09375-8.62451,6.56152-1.01025-1.5542-3.96289-6.04395-8.31396-9.49707,2.56396-1.29492,9.01318-4.66211,14.68506-11.22363h-12.354v-9.75586h19.03613c.69922-1.29492,1.00977-2.07178,1.39844-2.93506h-11.57715v-9.32422h14.91797c.2334-.604.54395-1.89893.69922-2.67627h-21.44434v-10.10107h23.30908c.2334-2.24463.38867-3.97119.46631-5.78467l12.66504,1.03613c.38818,0,1.55371.08643,1.55371,1.12256,0,.94971-1.16553,1.29492-1.94238,1.46729-.07764.77734-.2334,1.64062-.31104,2.15869h28.74854v10.10107h-30.92383c-.15527.60449-.46631,1.89941-.69922,2.67627h26.18408v9.32422h-12.82031c.69922,1.46777,1.16553,2.15869,1.63184,2.93506h19.26904Zm-23.23145,13.46875c-1.39893-1.64062-2.09814-2.50391-2.95264-3.71289h-17.4043c-.38867.69092-.77686,1.29492-2.48633,3.71289h22.84326Zm-2.79736,13.38184v-3.62646h-17.94824v3.62646h17.94824Zm-17.94824,7.94238v3.7124h17.94824v-3.7124h-17.94824Zm12.82031-34.62012c-.38867-.86328-.69922-1.64014-1.24316-3.36719h-5.5166c-.31104.9502-.62158,1.72705-1.3208,3.36719h8.08057Z"/><path class="cls-1" d="m26.44971,32.09082c.93262-.08643,12.19873-.77734,12.89795-.86328.31055-.25928.54395-.51807.69922-.69092-3.9624-4.9209-7.14795-8.02881-13.59717-12.60498l6.75977-7.85645c1.47607,1.03613,2.09766,1.46777,3.57422,2.67676.46582-.69092,3.49609-4.48926,7.07031-11.30957l9.55664,4.9209c.2334.17236.77734.43164.77734,1.03613,0,.69043-.85498,1.12207-2.25342,1.03564-1.63135,2.33105-4.27344,6.30225-7.76953,10.87842,1.16553,1.29492,1.94238,2.1582,2.71924,3.10791,1.94238-2.41748,8.85742-11.396,12.354-17.35303l10.25586,5.69775c.38867.17236.62158.51807.62158.94971,0,.94971-.77686.94971-2.4082.94971-6.21582,8.02881-8.93555,11.13721-14.60742,17.61182,3.65186-.25879,4.04004-.25879,7.14844-.43164-1.24316-2.50342-1.39893-2.84863-2.25342-4.22998l8.70215-5.00732c3.03027,4.40283,7.22607,12.08691,9.55664,18.64795-1.16553.69092-4.35107,2.41748-5.2832,3.02197-.62158.34521-3.34131,2.1582-3.88525,2.50342-.54346-1.5542-.77686-2.07178-2.48633-6.04346-2.48633.25928-13.98535,1.46777-15.61719,1.72656l1.86475.51855c.46631.08594.93262.51758.93262,1.12207,0,1.12207-1.08789,1.20898-2.6416,1.38135-.2334.43164-.85498,1.38135-1.08789,1.81299h17.55957l4.89502,5.78418c-2.25342,3.36719-5.5166,8.0293-13.05322,15.28125,5.82715,3.45361,11.11084,4.83496,17.71533,5.78467-4.27344,4.66162-4.73975,5.18018-7.0708,10.18701-10.10059-2.7627-16.62744-6.90625-19.34668-8.71973-5.82715,4.14453-11.73242,6.99316-18.18115,8.89258-1.63184-4.66211-3.03027-6.73389-6.44922-10.35986,2.875-.69092,9.09082-1.98584,16.39453-5.95752-1.5542-1.8125-1.94238-2.33057-3.72949-4.83447-3.10791,3.7124-3.88477,4.57568-6.21582,6.8208-2.71973-2.93555-4.42871-4.48975-8.00293-6.21631v20.20215h-11.65479v-30.56201c-.38818.51758-1.78711,1.98535-2.25342,2.50342-2.02002-3.28076-4.81689-6.82031-8.39111-9.23779,7.69189-6.12988,14.14111-13.98633,19.50195-24.08691l10.33398,5.00684c.23291.08643.77686.43164.77686,1.12256,0,1.03613-.93213,1.2085-2.17529,1.38135-.93262,1.29492-4.89502,7.4248-5.74951,8.6333.77686.34521,1.16504.77686,1.16504,1.12256,0,.43164-.38818,1.03613-1.55371,1.64014v20.20264c4.11816-3.45361,9.94531-9.23828,14.7627-18.04395-.77734.08594-6.44922.77686-6.75977.77686-.46631.94971-.85498,1.5542-1.3208,1.5542-.62158,0-.77734-1.03613-.85498-1.5542l-1.94238-10.53271Zm.62158-23.82812c.69922.43164,1.08789.69043,1.08789,1.2085,0,.94971-1.24316.94971-2.02002.94971-6.60449,8.97852-11.65479,14.93555-16.23926,18.99316-4.19531-5.87012-7.30322-7.25195-8.85742-7.94238C6.24854,16.896,11.84277,11.37061,17.35889,2.56445l9.7124,5.69824Zm17.24902,46.2749c1.55371,2.24463,2.79688,3.7124,4.89502,5.69775,2.71924-2.41699,3.9624-3.97119,5.36084-5.69775h-10.25586Z"/><path class="cls-1" d="m71.59229,103.14062v23.82812h-29.13672v3.1084h31.46777v31.1665c0,5.87061-1.70947,6.12939-9.47949,6.38867-.38818-3.36719-.77686-4.74854-1.63135-6.99316v4.48975h-5.5166v-11.65527h-2.79736v11.65527h-5.5166v-11.65527h-2.6416v14.15869h-7.30371v-14.33154c-.54395,1.81299-2.87451,10.1875-5.90479,13.8999-3.88477-2.67627-5.43896-3.53955-9.24609-4.40283,3.80713-5.69824,5.36133-10.61914,5.90479-12.43262-1.78662.86328-2.6416,1.29492-3.72949,1.89941-1.63135-5.43896-1.86426-13.20898-1.86426-15.71289l6.37109-.94922c.31055,3.19434.62158,5.09375,1.00977,7.25195.38867-2.41748.85498-6.56152.93262-10.61914-2.6416.60449-5.5166,2.07178-6.68213,2.67627-.15527-1.29492-.15527-1.5542-.38818-3.62598-.85498.08643-1.47656.17236-2.17578.25879v36.26025h-10.10059v-28.92188c-.31104.25928-.69922.43164-1.24316.51807-.07764,7.33838-.38867,14.07275-1.39844,19.77051-3.72949-1.46729-4.97266-1.81299-9.16846-2.41748,1.86475-7.85645,2.25293-12.86328,2.48633-20.37451l8.23584.86328c.31055,0,.69922.17236,1.08789.34521v-5.00732c-1.24316.17236-6.29346.604-7.14844.69092-.15527.69043-.77686,2.07178-1.63135,2.07178-.69971,0-.85498-.94971-.93262-1.5542l-1.01025-10.44629c2.09814,0,2.79736,0,4.50684-.08643,3.18555-3.62598,4.35107-5.18018,5.90479-7.25195-.46631-.51807-5.67188-6.21631-10.48926-9.23779l5.05029-8.28809c1.16553.77734,1.39893.94971,2.02051,1.46777.62158-1.12207,3.57422-6.56152,5.2832-12.08691l9.55713,4.23047c.23291.08643,1.16553.51807,1.16553,1.20898,0,1.20801-1.08789,1.12207-2.48633,1.03564-1.70947,4.05762-5.5166,10.27393-6.60449,11.7417.54395.51758.85449.86328,1.94238,2.07178,4.1958-6.56104,4.66211-7.33838,5.82715-10.01465l8.00293,4.40283c.38867.17285.69922.3457,1.01025.60449h38.46045Zm-39.15967,2.1582c-.54395.08643-1.01025.08643-1.63184,0-2.87451,4.66211-7.92529,11.39648-12.66455,17.43945,1.00977-.08594,4.81738-.34521,5.74951-.43164-.23291-1.03613-.31104-1.38086-1.01025-3.97119l6.99316-2.7627c1.16504,3.10791,1.78711,5.61182,2.56396,10.10107v-20.375Zm41.49072-15.1084v9.58301H30.25684v-9.58301h43.6665Zm-31.46777,22.36035v4.74854h18.88037v-4.74854h-18.88037Zm6.52637,26.93652h-2.6416v5.43896h2.6416v-5.43896Zm8.31396,0h-2.79736v5.43896h2.79736v-5.43896Zm5.5166,5.43896h2.87451v-5.43896h-2.87451v5.43896Zm0,12.86377c.46582,0,1.3208.08643,1.70898.08643,1.08789,0,1.16553-.34521,1.16553-2.67627v-1.72656h-2.87451v4.31641Z"/><path class="cls-1" d="m12.7749,508.98926v-32.46143h15.77246c.2334-.51807.54395-1.29492,1.08789-2.7627H3.91748v-9.23779h70.47168v9.23779h-31.77832c-.15527.69092-.69922,1.98584-1.00977,2.7627h23.38672v32.46143h-30.22461c-1.0874,1.5542-1.78662,2.41748-2.33057,3.1084h26.02881l4.58398,4.66211c-3.34082,4.23047-7.61426,7.85645-12.66455,11.22314,2.56396.69092,11.03271,2.84912,24.2417,2.7627-4.1958,6.64795-4.42871,9.5835-4.66211,11.82764-5.36133-.604-18.49219-2.1582-31.38965-7.68359-10.56689,5.09375-19.50244,7.16602-29.60303,7.85645-1.08789-5.87061-4.11816-9.8418-5.28369-11.396,12.82031.17236,19.34717-1.46777,23.77588-2.84912-1.24316-.86328-3.03027-2.33105-6.21582-5.52539-5.43896,4.57568-8.54688,6.04346-10.95557,7.25195-1.78711-4.31641-3.88477-6.73389-6.99268-9.66895,2.6416-.9502,10.25586-3.71289,17.17139-11.56934h-7.69238Zm41.10205-22.79199v-2.7627h-29.60254v2.7627h29.60254Zm-29.60254,5.17969v2.7627h29.60254v-2.7627h-29.60254Zm0,7.94336v2.7627h29.60254v-2.7627h-29.60254Zm8.70215,20.28809c1.78662,1.38184,3.80713,2.7627,6.8374,4.31689,3.72949-1.98584,5.12793-3.28076,6.1377-4.31689h-12.9751Z"/></g></svg>